<?xml version="1.0" encoding="utf-8"?>
<svg viewBox="0 0 100 100" xmlns="http://www.w3.org/2000/svg">
  <g transform="matrix(1.30512201786, 0, 0, 1.30512201786, -8.720503269961, -10.882731595079)" style="transform-origin: 19.5571px 14.4584px;">
    <path d="m40.277 35.531c0.14844-0.16406 0.35938-0.25781 0.57812-0.25781h8.7852c0.97266 0 1.8008 0.625 2.1094 1.4922h7.0781c0.70312 0 1.3398-0.28125 1.7461-0.77344l0.066406-0.078126c0.26172-0.32812 0.16406-0.66406 0.10938-0.79297-0.11719-0.27734-0.35938-0.45703-0.65625-0.48828l-0.17188-0.015624c-0.22266-0.011719-0.42969-0.12109-0.57031-0.29688-0.16797-0.21094-0.34766-0.40234-0.53125-0.58984-0.11719 0.13672-0.27344 0.24219-0.46484 0.27344l-2.918 0.47656c-0.042969 0.007812-0.085938 0.011719-0.125 0.011719-0.375 0-0.70703-0.27344-0.76953-0.65625-0.070313-0.42578 0.21875-0.82813 0.64453-0.89844l2.0664-0.33594c-0.70703-0.32812-1.4922-0.50391-2.3125-0.50391h-24.281c-1.7578 0.003906-3.3242 1.4102-4.0469 2.1758 0.72656 0.76172 2.3008 2.168 4.0508 2.1719h8.7891z"/>
    <path d="m45.379 36.836h-4.1758l-0.82422 0.91406-3.3086 3.668h3.3711l5.1875-2.8789z"/>
    <path d="m38.617 63.383h15.918v-3.5c0-2.5156 2.0469-4.5586 4.5586-4.5586h7.4492v-33.645h-15.555c-0.007812 0-0.015625 0.003906-0.023437 0.003906h-14.77c-0.007812 0-0.015624-0.003906-0.023437-0.003906h-15.555v61.895h34.223c-0.19531-0.50781-0.30469-1.0547-0.30469-1.6289v-5.3555h-15.918c-0.43359 0-0.78125-0.35156-0.78125-0.78125 0-0.42969 0.34766-0.78125 0.78125-0.78125h15.918v-10.082h-15.918c-0.43359 0-0.78125-0.35156-0.78125-0.78125 0-0.42969 0.35156-0.78125 0.78125-0.78125zm1.4648-36.328c0.25781-0.34766 0.74609-0.42188 1.0938-0.16406l2.3008 1.6992 3.0469-3.2344c0.29687-0.3125 0.79297-0.32812 1.1055-0.03125s0.32812 0.78906 0.03125 1.1055l-3.5234 3.7383c-0.15234 0.16016-0.35938 0.24609-0.57031 0.24609-0.16406 0-0.32422-0.050781-0.46484-0.15234l-2.8555-2.1094c-0.34375-0.26172-0.41797-0.75-0.16406-1.0977zm-6.2266 50.613c0 1.1875-0.96484 2.1523-2.1523 2.1523h-3.7188c-1.1875 0-2.1523-0.96484-2.1523-2.1523v-3.7188c0-1.1875 0.96484-2.1523 2.1523-2.1523h3.7188c1.1875 0 2.1523 0.96484 2.1523 2.1523zm0-11.645c0 1.1875-0.96484 2.1523-2.1523 2.1523h-3.7188c-1.1875 0-2.1523-0.96484-2.1523-2.1523v-3.7148c0-1.1875 0.96484-2.1523 2.1523-2.1523h3.7188c1.1875 0 2.1523 0.96484 2.1523 2.1523zm3.3516-19.039-3.3594 3.6328c0 0.015624 0.003906 0.03125 0.003906 0.046874v3.7188c0 1.1875-0.96484 2.1523-2.1523 2.1523l-3.7148-0.003906c-1.1875 0-2.1523-0.96484-2.1523-2.1523v-3.7148c0-1.1875 0.96484-2.1523 2.1523-2.1523h3.7188c0.55859 0 1.0586 0.21875 1.4453 0.56641l2.9141-3.1523c0.29297-0.31641 0.78516-0.33594 1.1055-0.042969 0.3125 0.29297 0.33203 0.78516 0.039062 1.1016zm-1.8945-4.0039c-0.30859 0-0.58984-0.18359-0.71484-0.46484s-0.074218-0.61328 0.13281-0.83984l3.3086-3.668h-7.3828c-3.1602-0.011718-5.6016-3.1211-5.707-3.2539-0.027344-0.035156-0.039063-0.074218-0.058594-0.10938-0.015625-0.03125-0.035156-0.058593-0.046875-0.089843-0.035156-0.089844-0.054688-0.18359-0.054688-0.27734l0.003907-8.0625c0-0.42969 0.34766-0.78125 0.78125-0.78125h1.1055c0.20703 0 0.40625 0.082031 0.55078 0.23047l4.8711 4.875h22.84c1.8359 0 3.5469 0.67969 4.8203 1.9141 0.20703 0.19922 0.40625 0.41406 0.60156 0.64062 0.8125 0.125 1.5039 0.66016 1.8242 1.4219 0.33984 0.80469 0.21875 1.6875-0.32031 2.3633-0.03125 0.039063-0.066407 0.085938-0.10547 0.12891-0.69141 0.83203-1.7656 1.3203-2.9336 1.3203h-7.1133c-0.11328 0.28516-0.27734 0.54297-0.5 0.75781-0.42578 0.41797-0.98438 0.64844-1.5742 0.64844h-2.8945c-0.046875 0.015625-0.089844 0.042969-0.14453 0.050781h-0.003906l-5.5742 3.0938c-0.11719 0.066406-0.24609 0.097656-0.37891 0.097656h-5.332zm3.3047 8.7617h21.938c0.43359 0 0.78125 0.35156 0.78125 0.78125 0 0.42969-0.34766 0.78125-0.78125 0.78125h-21.938c-0.43359 0-0.78125-0.35156-0.78125-0.78125 0-0.43359 0.35156-0.78125 0.78125-0.78125z"/>
    <path d="m26.355 26.996v5.375c0.89062-0.75391 2.1484-1.5625 3.5977-1.7773z"/>
    <path d="m29.844 54.578c-0.035156 0-0.070312-0.003906-0.10156-0.007813-0.25-0.035156-0.47266-0.1875-0.58984-0.41016l-1.1641-2.2266c-0.19922-0.38281-0.050781-0.85547 0.32812-1.0547 0.38281-0.19922 0.85547-0.050781 1.0547 0.32812l0.65234 1.2461 2.0625-2.2305c-0.10547-0.089844-0.23438-0.14844-0.38281-0.14844h-3.7188c-0.32422 0-0.58984 0.26562-0.58984 0.58984v3.7188c0 0.32422 0.26562 0.58984 0.58984 0.58984h3.7188c0.32422 0 0.58984-0.26562 0.58984-0.58984v-2.0781l-1.875 2.0273c-0.14844 0.15625-0.35938 0.24609-0.57422 0.24609z"/>
    <path d="m31.703 61.715h-3.7188c-0.32422 0-0.58984 0.26562-0.58984 0.58984v3.7148c0 0.32422 0.26562 0.58984 0.58984 0.58984h3.7188c0.32422 0 0.58984-0.26562 0.58984-0.58984v-3.7148c0-0.32422-0.26562-0.58984-0.58984-0.58984z"/>
    <path d="m49.641 36.836h-2.6836l0.19922 1.3398h2.4883c0.17578 0 0.34766-0.070312 0.48047-0.20312 0.11719-0.11328 0.18359-0.26953 0.19141-0.43359-0.007812-0.40625-0.30469-0.70312-0.67578-0.70312z"/>
    <path d="m52.328 19.23-0.28906 0.89062h15.285c0.43359 0 0.78125 0.35156 0.78125 0.78125v34.426h3.2109v-34.633c0-2.0859-1.7031-3.7812-3.793-3.7812l-12.008-0.003906c-1.457 0-2.7383 0.93359-3.1875 2.3203z"/>
    <path d="m77.797 66.473c0-1.7539-0.58984-3.418-1.6602-4.7617v6.1914c0 0.27734-0.14844 0.53906-0.39062 0.67578l-5.2305 3.0195c-0.24219 0.14062-0.53906 0.14062-0.78125 0l-5.2305-3.0195c-0.24219-0.14062-0.39062-0.39844-0.39062-0.67578v-6.1914c-1.0703 1.3438-1.6602 3.0078-1.6602 4.7617 0 3.1445 1.8867 5.9375 4.8086 7.1133 0.29688 0.11719 0.48828 0.40625 0.48828 0.72656v10.223h6.168l0.003906-10.965c0-0.26562 0.13281-0.51172 0.35547-0.65625 2.2031-1.4219 3.5195-3.832 3.5195-6.4414z"/>
    <path d="m81.152 56.887h-22.059c-1.6523 0-2.9961 1.3438-2.9961 2.9961v22.059c0 1.6523 1.3438 2.9961 2.9961 2.9961h7.0938v-10.117c-3.2383-1.5195-5.3008-4.7422-5.3008-8.3516 0-2.8359 1.2812-5.4805 3.5195-7.2461 0.23438-0.1875 0.55469-0.21875 0.82422-0.089844 0.26953 0.12891 0.44141 0.40234 0.44141 0.70313v7.6133l4.4492 2.5664 4.4492-2.5664v-7.6133c0-0.30078 0.17188-0.57422 0.44141-0.70313 0.26953-0.12891 0.58984-0.09375 0.82422 0.089844 2.2383 1.7695 3.5195 4.4102 3.5195 7.2461 0 3-1.4414 5.7773-3.875 7.5117v10.957h5.668c1.6523 0 2.9961-1.3438 2.9961-2.9961l0.007813-22.055c0-1.6523-1.3477-3-3-3z"/>
    <path d="m55.844 85.137h-36.008c-0.43359 0-0.78125-0.35156-0.78125-0.78125v-63.457c0-0.42969 0.34766-0.78125 0.78125-0.78125h15.285l-0.28906-0.89063c-0.44922-1.3867-1.7305-2.3164-3.1875-2.3164h-12.012c-2.0859 0-3.7812 1.6953-3.7812 3.7812v63.867c0 2.0859 1.6953 3.7812 3.7812 3.7812h47.895c1.3516 0 2.5664-0.72266 3.2383-1.8398l-11.672 0.003906c-1.2695 0-2.4219-0.52734-3.25-1.3672z"/>
    <path d="m36.316 18.746 0.44531 1.3711h13.637l0.44141-1.3711c0.65625-2.0195 2.5117-3.375 4.6289-3.3945v-0.45312c0-1.9609-1.1523-3.1797-3.0039-3.1797h-17.34c-1.8789 0-3.0938 1.25-3.0938 3.1797v0.48047c1.9727 0.15625 3.668 1.4609 4.2852 3.3672zm7.5859-5.5547c1.6211 0 2.9414 1.3203 2.9414 2.9414 0 1.6211-1.3203 2.9414-2.9414 2.9414s-2.9414-1.3203-2.9414-2.9414c0-1.625 1.3203-2.9414 2.9414-2.9414z"/>
    <path d="m31.703 73.359h-3.7188c-0.32422 0-0.58984 0.26562-0.58984 0.58984v3.7188c0 0.32422 0.26562 0.58984 0.58984 0.58984h3.7188c0.32422 0 0.58984-0.26562 0.58984-0.58984v-3.7188c0-0.32422-0.26562-0.58984-0.58984-0.58984z"/>
    <path d="m45.281 16.129c0 1.8398-2.7578 1.8398-2.7578 0 0-1.8359 2.7578-1.8359 2.7578 0"/>
  </g>
</svg>