<?xml version="1.0" encoding="utf-8"?>
<svg viewBox="0 0 100 100" xmlns="http://www.w3.org/2000/svg">
  <g data-name="Airplane Maintenance" transform="matrix(1.788358926773, 0, 0, 1.788358926773, -3.248050200773, -4.041510842269)" style="transform-origin: 5.24805px 4.0415px;">
    <path d="M57.53613,27.855l-2.46777-.61719a12.83753,12.83753,0,0,0-.92285-2.26123l1.32812-2.21484a1.60222,1.60222,0,0,0-.24121-1.96045L52.90625,18.4751a1.60184,1.60184,0,0,0-1.96094-.2417l-2.18164,1.3081a12.89106,12.89106,0,0,0-2.251-.94482l-.627-2.50586A1.60249,1.60249,0,0,0,44.3291,14.875h-3.291a1.60239,1.60239,0,0,0-1.55664,1.21631l-.61719,2.46728a12.95828,12.95828,0,0,0-2.26074.92237l-1.05762-.634c.15088-4.53515.22156-6.908.21875-7.39477C35.75488,9.36328,33.4668,4.0415,30.627,4.0415c-2.85937,0-5.13769,5.3252-5.13769,7.41553,0,.98535.12988,5.24365.38574,12.65918L6.23535,38.07227a2.34614,2.34614,0,0,0-.9873,1.91162v2.27832a1.40321,1.40321,0,0,0,1.8125,1.34228l19.2959-5.894L26.792,49.65674l-5.29394,5.93408a2.342,2.342,0,0,0-.59571,1.56055v1.52246a1.2768,1.2768,0,0,0,.6045,1.09228,1.25732,1.25732,0,0,0,1.22754.06153l7.89453-3.88477,7.91894,3.88623a1.273,1.273,0,0,0,1.8291-1.1543v-1.522a2.34176,2.34176,0,0,0-.59668-1.56347L34.46,49.64355l.21906-6.09906,1.81121-1.086a12.90353,12.90353,0,0,0,2.251.94482l.627,2.50586A1.6025,1.6025,0,0,0,40.9248,47.125h3.29a1.60249,1.60249,0,0,0,1.55664-1.21582l.61719-2.46777a12.92728,12.92728,0,0,0,2.26074-.92237l2.21485,1.32764a1.60279,1.60279,0,0,0,1.96094-.24121l2.32714-2.32666a1.60151,1.60151,0,0,0,.24121-1.96L54.085,37.13672a12.96885,12.96885,0,0,0,.94531-2.25049l2.50586-.627A1.60306,1.60306,0,0,0,58.752,32.70215v-3.29A1.60306,1.60306,0,0,0,57.53613,27.855ZM38.29,56.92334a.34482.34482,0,0,1,.08691.22949v.36426l-6.959-3.415a1.80333,1.80333,0,0,0-1.582.00147l-6.9336,3.41211v-.36426a.34524.34524,0,0,1,.08789-.229L28.55176,50.688a.9979.9979,0,0,0,.25293-.70215l-.49707-13.648a.99988.99988,0,0,0-1.291-.92041L7.24805,41.45605V39.98389a.34437.34437,0,0,1,.14453-.28076l20.0791-14.26856a.99765.99765,0,0,0,.41992-.84961c-.26269-7.61621-.40234-12.15576-.40234-13.12793,0-1.67822,2.00195-5.41553,3.13769-5.41553,1.127,0,3.12989,3.74073,3.1377,5.4209.00262.41986-.06177,2.60687-.18921,6.48151a1.57833,1.57833,0,0,0-1.14673.45062l-2.32715,2.32666a1.60154,1.60154,0,0,0-.24121,1.96L31.168,24.86279a12.93824,12.93824,0,0,0-.94434,2.251l-2.50586.627A1.60306,1.60306,0,0,0,26.502,29.29785v3.29053a1.60306,1.60306,0,0,0,1.21582,1.55713l2.46778.6167A12.81678,12.81678,0,0,0,31.1084,37.023l-1.32715,2.21289a1.60053,1.60053,0,0,0,.24023,1.96289l2.32618,2.32617a1.57541,1.57541,0,0,0,.32318.23029l-.22357,6.21893a.99667.99667,0,0,0,.2539.70313ZM56.752,32.394l-2.76562.69141a1.00033,1.00033,0,0,0-.72461.71631,10.93682,10.93682,0,0,1-1.19238,2.83594,1.00041,1.00041,0,0,0,.001,1.02783L53.51953,40.083l-1.89062,1.89013-2.44434-1.46582a1.00151,1.00151,0,0,0-1.01855-.00586,10.91978,10.91978,0,0,1-2.84864,1.16163.9969.9969,0,0,0-.72656.72705L43.90625,45.125H41.2334L40.541,42.35889a.99808.99808,0,0,0-.71582-.72461,10.91845,10.91845,0,0,1-2.83594-1.19092.9991.9991,0,0,0-1.02832.00049l-2.417,1.44922-1.89063-1.89063,1.46582-2.44482a.99923.99923,0,0,0,.00586-1.01856,10.89776,10.89776,0,0,1-1.16113-2.84863.99971.99971,0,0,0-.72754-.727L28.502,32.27979V29.606l2.76563-.69141a1.00035,1.00035,0,0,0,.72461-.71631,10.97219,10.97219,0,0,1,1.1914-2.83691.99954.99954,0,0,0-.001-1.02735l-1.44824-2.417L33.624,20.02686l2.44434,1.46582a1.00374,1.00374,0,0,0,1.01855.00586,10.93993,10.93993,0,0,1,2.84961-1.16163.99754.99754,0,0,0,.72657-.72753l.68359-2.73438h2.67383l.69238,2.76611a.99809.99809,0,0,0,.71582.72461,10.91039,10.91039,0,0,1,2.83594,1.19092.9991.9991,0,0,0,1.02832-.00049l2.417-1.44922,1.89063,1.89063-1.46582,2.44433A.99834.99834,0,0,0,52.12891,25.46,10.92514,10.92514,0,0,1,53.29,28.30957a1.00048,1.00048,0,0,0,.72754.727l2.73437.68359Z"/>
    <path d="M42.627,39.5a8.5,8.5,0,1,1,8.5-8.5A8.50982,8.50982,0,0,1,42.627,39.5Zm0-15a6.5,6.5,0,1,0,6.5,6.5A6.50753,6.50753,0,0,0,42.627,24.5Z"/>
  </g>
</svg>