<?xml version="1.0" encoding="utf-8"?>
<svg viewBox="0 0 100 100" xmlns="http://www.w3.org/2000/svg">
  <g data-name="Airplane Maintenance" transform="matrix(1.854582071304, 0, 0, 1.854761123657, -4.249999914753, -5.039968256178)" style="transform-origin: 6.24999px 5.04px;">
    <path d="M39.03,56.26a1.28069,1.28069,0,0,1,.35.88995v1.52a.275.275,0,0,1-.39.26L30.98,55a.78363.78363,0,0,0-.7,0l-7.99,3.93a.275.275,0,0,1-.39-.26V57.15a1.31786,1.31786,0,0,1,.34-.88995L27.81,50.02c-.12-3.21-.31-8.25-.5-13.65L6.77,42.65A.40475.40475,0,0,1,6.25,42.26V39.98a1.34566,1.34566,0,0,1,.56-1.09L26.89,24.62c-.23-6.61-.4-12.04-.4-13.16,0-1.89,2.16-6.42,4.14-6.42,1.97,0,4.13,4.53,4.14,6.42,0,.44-.06,2.58-.16,5.69a2.59366,2.59366,0,0,0-2.89.54l-2.33,2.32A2.63016,2.63016,0,0,0,29,23.2l1.03,1.7a13.8782,13.8782,0,0,0-.58,1.38l-1.98.49A2.60112,2.60112,0,0,0,25.5,29.3v3.29a2.60112,2.60112,0,0,0,1.97,2.53l1.94.48a13.75633,13.75633,0,0,0,.56,1.38l-1.04,1.74a2.60062,2.60062,0,0,0,.38,3.19l2.33,2.32a2.60905,2.60905,0,0,0,1.99.76c-.07,1.93-.14,3.64-.18,5.02Z"/>
    <path d="M57.29,28.83,54.26,28.07A11.64274,11.64274,0,0,0,52.99,24.96l1.63-2.71a.61778.61778,0,0,0-.09-.74L52.2,19.18a.61961.61961,0,0,0-.74-.09L48.78,20.7a11.66712,11.66712,0,0,0-3.1-1.3l-.76-3.07a.6007.6007,0,0,0-.59-.45H41.04a.59.59,0,0,0-.59.45l-.76,3.04a12.0936,12.0936,0,0,0-3.11,1.26l-2.05-1.22-.66-.4a.60478.60478,0,0,0-.73.09l-2.33,2.33a.59032.59032,0,0,0-.09.74l1.61,2.68a11.74,11.74,0,0,0-1.3,3.09l-3.07.77a.60958.60958,0,0,0-.46.59v3.29a.60956.60956,0,0,0,.46.59l3.03.75a11.98,11.98,0,0,0,1.27,3.11l-1.62,2.71a.59031.59031,0,0,0,.09.74l2.32,2.33a.61028.61028,0,0,0,.65.13.35485.35485,0,0,0,.09-.04l2.69-1.61a11.60248,11.60248,0,0,0,3.09,1.3l.77,3.07a.59763.59763,0,0,0,.58.45h3.3a.58686.58686,0,0,0,.58-.45l.76-3.04a11.95123,11.95123,0,0,0,3.11-1.26l2.71,1.62a.61954.61954,0,0,0,.74-.09l.74-.75L54.44,40.57a.60534.60534,0,0,0,.1-.74005l-.91-1.52-.7-1.16a12.084,12.084,0,0,0,1.3-3.09l3.06-.77a.60956.60956,0,0,0,.46-.59V29.41A.58989.58989,0,0,0,57.29,28.83Zm-14.6629,9.67A7.5,7.5,0,1,1,50.127,31,7.5,7.5,0,0,1,42.62708,38.49994Z"/>
  </g>
</svg>