<?xml version="1.0" encoding="utf-8"?>
<svg viewBox="0 0 100 100" xmlns="http://www.w3.org/2000/svg">
  <g transform="matrix(1.666666984558, 0, 0, 1.666666984558, -2.000000953674, -1.999988555911)" style="transform-origin: 2px 1.99999px;">
    <path d="M45,27H37.721l-1.772-5.316A1,1,0,0,0,35,21H30a1,1,0,0,0-1,1v5H23.618L20.9,21.553A1,1,0,0,0,20,21H15a1,1,0,0,0-1,1V36a3,3,0,0,0,3,3H29v5a1,1,0,0,0,1,1h6a1,1,0,0,0,.976-.783L38.135,39H49a3,3,0,0,0,3-3V34A7.008,7.008,0,0,0,45,27ZM31,23h3.279l1.333,4H31ZM50,36a1,1,0,0,1-1,1H38.58l.4-1.783-1.952-.434L35.2,43H31V35H29v2H17a1,1,0,0,1-1-1V23h3.382l2.723,5.447A1,1,0,0,0,23,29H45a5.006,5.006,0,0,1,5,5Z"/>
    <rect x="43" y="31" width="4" height="2"/>
    <rect x="39" y="31" width="2" height="2"/>
    <rect x="35" y="31" width="2" height="2"/>
    <rect x="31" y="31" width="2" height="2"/>
    <rect x="27" y="31" width="2" height="2"/>
    <rect x="23" y="31" width="2" height="2"/>
    <path d="M61.1,26.005,54,25.3a22.931,22.931,0,0,0-1.7-4.109l4.518-5.524a1,1,0,0,0-.066-1.34L49.678,7.251a1,1,0,0,0-1.341-.067L42.814,11.7A23.021,23.021,0,0,0,38.705,10l-.71-7.1A1,1,0,0,0,37,2H27a1,1,0,0,0-1,.9L25.3,10A23.021,23.021,0,0,0,21.186,11.7L15.663,7.184a1,1,0,0,0-1.341.067L7.251,14.322a1,1,0,0,0-.066,1.34L11.7,21.186A22.931,22.931,0,0,0,10,25.3l-7.1.71A1,1,0,0,0,2,27V37a1,1,0,0,0,.9.995l7.1.71a22.87,22.87,0,0,0,1.7,4.109L7.185,48.338a1,1,0,0,0,.066,1.34l7.071,7.071a1,1,0,0,0,1.341.067L21.186,52.3A23.021,23.021,0,0,0,25.3,54l.71,7.1a1,1,0,0,0,1,.9H37a1,1,0,0,0,.995-.9l.71-7.1A23.021,23.021,0,0,0,42.814,52.3l5.523,4.519a1,1,0,0,0,1.341-.067l7.071-7.071a1,1,0,0,0,.066-1.34L52.3,42.814A22.87,22.87,0,0,0,54,38.705l7.1-.71A1,1,0,0,0,62,37V27A1,1,0,0,0,61.1,26.005ZM60,36.1l-6.872.687a1,1,0,0,0-.865.734,20.86,20.86,0,0,1-2.037,4.91,1,1,0,0,0,.094,1.13L54.694,48.9,48.9,54.7l-5.347-4.376a1,1,0,0,0-1.13-.092,21.012,21.012,0,0,1-4.911,2.037,1,1,0,0,0-.733.865L36.1,60h-8.19l-.687-6.871a1,1,0,0,0-.733-.865,21.012,21.012,0,0,1-4.911-2.037,1,1,0,0,0-1.13.092L15.1,54.7,9.306,48.9l4.374-5.347a1,1,0,0,0,.094-1.13,20.86,20.86,0,0,1-2.037-4.91,1,1,0,0,0-.865-.734L4,36.1v-8.19l6.872-.687a1,1,0,0,0,.865-.734,20.887,20.887,0,0,1,2.037-4.91,1,1,0,0,0-.094-1.13L9.306,15.1,15.1,9.305l5.347,4.376a1,1,0,0,0,1.13.092,21.012,21.012,0,0,1,4.911-2.037,1,1,0,0,0,.733-.865L27.905,4H36.1l.687,6.871a1,1,0,0,0,.733.865,21.012,21.012,0,0,1,4.911,2.037,1,1,0,0,0,1.13-.092L48.9,9.305,54.694,15.1,50.32,20.444a1,1,0,0,0-.094,1.13,20.887,20.887,0,0,1,2.037,4.91,1,1,0,0,0,.865.734L60,27.905Z"/>
    <path d="M32,17a14.909,14.909,0,0,1,13.493,8.438l1.8-.876A17.005,17.005,0,0,0,20.755,19.25l1.324,1.5A14.981,14.981,0,0,1,32,17Z"/>
    <path d="M32,47a15,15,0,0,1-12.4-6.563l-1.653,1.126a17,17,0,0,0,28.114,0L44.4,40.437A15,15,0,0,1,32,47Z"/>
    <rect x="31" y="9" width="2" height="2"/>
    <rect x="15.444" y="15.443" width="2" height="2" transform="translate(-6.811 16.448) rotate(-45.01)"/>
    <rect x="9" y="31" width="2" height="2"/>
    <rect x="15.444" y="46.557" width="2" height="2" transform="translate(-28.811 25.556) rotate(-45)"/>
    <rect x="31" y="53" width="2" height="2"/>
    <rect x="46.557" y="46.557" width="2" height="2" transform="translate(-19.699 47.568) rotate(-45.01)"/>
    <rect x="53" y="31" width="2" height="2"/>
    <rect x="46.556" y="15.443" width="2" height="2" transform="translate(2.302 38.444) rotate(-45)"/>
  </g>
</svg>