<?xml version="1.0" encoding="utf-8"?>
<svg viewBox="0 0 100 100" xmlns="http://www.w3.org/2000/svg">
  <g transform="matrix(1.097694993019104, 0, 0, 1.097694993019104, -4.500546932220459, -5.708014011383057)">
    <path d="M69.6,35.5c0.2,0.6,0,1.1-0.1,1.2c0,0-0.1,0.1-0.1,0.1l-1.1,0.9c-0.2,0.1-0.5,0.1-0.5-0.2c-0.1-0.2-0.2-0.6-0.5-1   c-0.3-0.6-0.7-1-0.9-1.2c-0.1-0.1-0.1-0.4,0-0.5l1.3-1.3c0.1-0.1,0.4-0.1,0.5,0C68.7,34.2,69.3,35,69.6,35.5 M68.2,39.1L68,38.8   c-0.1-0.1-0.1-0.3,0-0.4l1.7-1.2L68.2,39.1z M67.9,39.4l-1.7,2L66,41.2c-0.1-0.1-0.1-0.3,0-0.4l1.4-1.4c0.1-0.1,0.3-0.1,0.4,0   L67.9,39.4z M61.5,45.8c-0.5,0.5-1.1,0.9-1.2,0.7c-0.1-0.1,0.2-0.6,0.7-1.2c0.5-0.5,1.1-0.9,1.2-0.7C62.4,44.7,62.1,45.3,61.5,45.8    M59.2,48.1c-0.5,0.5-1.1,0.9-1.2,0.7c-0.1-0.1,0.2-0.6,0.7-1.2c0.5-0.5,1.1-0.9,1.2-0.7C60.1,47,59.7,47.6,59.2,48.1 M56.9,50.4   c-0.5,0.5-1.1,0.9-1.2,0.7c-0.1-0.1,0.2-0.6,0.7-1.2s1.1-0.9,1.2-0.7C57.8,49.4,57.4,49.9,56.9,50.4 M54.6,52.7   c-0.5,0.5-1.1,0.9-1.2,0.7c-0.1-0.1,0.2-0.6,0.7-1.2c0.5-0.5,1.1-0.9,1.2-0.7C55.5,51.7,55.1,52.2,54.6,52.7 M52.3,55   c-0.5,0.5-1.1,0.9-1.2,0.7c-0.1-0.1,0.2-0.6,0.7-1.2c0.5-0.5,1.1-0.9,1.2-0.7C53.2,54,52.8,54.5,52.3,55 M42.5,63.8   c0-0.2,0-0.6,0.8-1.2c0.9-0.7,1.3-0.5,1.3-0.5L42.5,63.8z M38.4,55.8c0,0,0.2,0.4-0.5,1.3c-0.6,0.8-1,0.8-1.2,0.8L38.4,55.8z    M45.5,48.2c0.5-0.5,1.1-0.9,1.2-0.7c0.1,0.1-0.2,0.6-0.7,1.2c-0.5,0.5-1.1,0.9-1.2,0.7C44.6,49.3,45,48.7,45.5,48.2 M47.8,45.9   c0.5-0.5,1.1-0.9,1.2-0.7c0.1,0.1-0.2,0.6-0.7,1.2c-0.5,0.5-1.1,0.9-1.2,0.7C46.9,46.9,47.3,46.4,47.8,45.9 M50.1,43.6   c0.5-0.5,1.1-0.9,1.2-0.7c0.1,0.1-0.2,0.6-0.7,1.2s-1.1,0.9-1.2,0.7C49.2,44.6,49.6,44.1,50.1,43.6 M52.4,41.3   c0.5-0.5,1.1-0.9,1.2-0.7c0.1,0.1-0.2,0.6-0.7,1.2c-0.5,0.5-1.1,0.9-1.2,0.7C51.6,42.3,51.9,41.8,52.4,41.3 M54.7,39   c0.5-0.5,1.1-0.9,1.2-0.7c0.1,0.1-0.2,0.6-0.7,1.2c-0.5,0.5-1.1,0.9-1.2,0.7C53.9,40,54.2,39.5,54.7,39 M59.1,34.3l2-1.7l0.1,0.1   c0.1,0.1,0.1,0.3,0,0.4l-1.4,1.4c-0.1,0.1-0.3,0.1-0.4,0L59.1,34.3z M63.3,30.8L62,32.5c-0.1,0.1-0.3,0.1-0.4,0l-0.2-0.2L63.3,30.8   z M63.7,31.1c0.2-0.1,0.7-0.4,1.2-0.1c0.6,0.3,1.4,0.9,2,1.5c0.1,0.1,0.1,0.4,0,0.5l-1.3,1.3c-0.1,0.1-0.4,0.1-0.5,0   c-0.2-0.2-0.7-0.6-1.2-0.9c-0.4-0.2-0.8-0.4-1-0.5c-0.2-0.1-0.3-0.4-0.2-0.5L63.7,31.1C63.7,31.1,63.7,31.1,63.7,31.1 M77.1,23.4   C77.1,23.4,77.1,23.4,77.1,23.4L77.1,23.4c-1.3-1.2-4.3,0.5-6.8,2.1c-5.1,3.3-9.9,7.2-14.2,11.4l-6.4-6.1l6.2-6.2l1.2,1.2l1.9-1.9   c1.4-1.4-0.3-2.8-0.3-2.8s0.5-0.6,1-1.3c0.8,0.9,1.6,1.8,2.1,2.2c1.1,1.1,1.3,1.1,1.5,0.9c0.2-0.2,0.2-0.4-0.9-1.5   c-0.5-0.5-1.5-1.4-2.4-2.2c0.5-0.9,0.9-1.9,0.3-2.4c-0.5-0.5-1.6-0.2-2.6,0.3c-0.8-0.9-1.8-1.9-2.3-2.5c-1.1-1.1-1.3-1.1-1.5-0.9   c-0.2,0.2-0.2,0.4,0.9,1.5c0.5,0.5,1.4,1.4,2.3,2.2c-0.7,0.4-1.3,0.9-1.3,0.9c-1.5-1.5-2.5-0.4-2.5-0.4l-2,2l0.9,0.9l-5.5,5.7   l-4.8-1.6L19.9,5.2l-4.2,4.2l19.9,27l9.6,9.9L45.2,48c-1.7,1.9-3.4,3.7-4.9,5.4c-7.7,8.5-16.5,21.4-16.5,21.4L7.9,67.4l-3.8,3.5   l13.1,10.9c0,0-1.4,2.3-1.1,2.6c0.3,0.3,2.6-1.1,2.6-1.1l10.9,13.1l3.5-3.8l-7.5-15.9c0,0,12.9-8.8,21.4-16.5   c1.7-1.5,3.5-3.2,5.4-4.9l1.7-0.1l9.9,9.6l27,19.9l4.2-4.2L75.7,58.7l-1.6-4.8l5.7-5.5l0.9,0.9l2-2c0,0,1.2-1-0.4-2.5   c0,0,0.4-0.6,0.9-1.3c0.8,0.9,1.7,1.8,2.2,2.3c1.1,1.1,1.3,1.1,1.5,0.9c0.2-0.2,0.2-0.4-0.9-1.5c-0.5-0.5-1.5-1.5-2.5-2.3   c0.5-0.9,0.8-2,0.3-2.6c-0.5-0.5-1.5-0.2-2.4,0.3c-0.8-0.9-1.7-1.8-2.2-2.4c-1.1-1.1-1.3-1.1-1.5-0.9s-0.2,0.4,0.9,1.5   c0.5,0.5,1.4,1.3,2.2,2.1c-0.7,0.5-1.3,1-1.3,1s-1.4-1.7-2.8-0.3l-1.9,1.9l1.2,1.2l-6.2,6.2l-6.1-6.4c4.1-4.4,8.1-9.1,11.4-14.2   C76.6,27.7,78.3,24.6,77.1,23.4L77.1,23.4C77.1,23.4,77.1,23.4,77.1,23.4"/>
  </g>
</svg>