<?xml version="1.0" encoding="utf-8"?>
<svg viewBox="0 0 100 100" xmlns="http://www.w3.org/2000/svg">
  <g transform="matrix(1.109303951263, 0, 0, 1.109303951263, 0.526675869542, 0.37327760291)" style="transform-origin: 49.4733px 49.6267px;">
    <path d="M72.1,27.2C72.1,27.2,72.1,27.2,72.1,27.2L72.1,27.2c-2-1.9-13.7,6.1-13.7,6.1c-1.7,1.3-3.6,2.8-5.5,4.5L47,34.6l6.2-6.2   c0,0,0.6-0.8,1.5-2c0,0,0,0,0,0.1c0.3,0.4-0.3,1.1-0.3,1.1l1.8,0.6c0,0,0.5-1.3,0.8-2.2c0.3-0.7-0.5-1.4-0.9-1.7   c0.4-0.6,0.8-1.2,1.2-1.8c1,1.1,2.3,2.5,3.3,3.6c1.9,1.9,2.1,1.8,2.3,1.6c0.2-0.2,0.3-0.4-1.6-2.3c-1.1-1.1-2.6-2.5-3.7-3.4   c0.7-1.2,1.1-2.2,0.7-2.6c0,0-0.1,0-0.1-0.1c0-0.1,0-0.1-0.1-0.1c-0.3-0.3-1.3,0-2.5,0.7c-0.9-1.1-2.2-2.4-3.1-3.4   c-1.9-1.9-2.1-1.8-2.3-1.6c-0.2,0.2-0.3,0.4,1.6,2.3c0.9,0.9,2.2,2.1,3.2,3c-0.6,0.4-1.2,0.8-1.8,1.2c-0.3-0.4-1-1-1.6-0.8   c-0.9,0.3-2.2,0.8-2.2,0.8l0.6,1.8c0,0,0.6-0.5,1-0.4c-1.1,0.8-1.9,1.4-1.9,1.4L43.6,30l-5.8-2.2c0,0-20-18.4-24-22.1   s-10,2.8-9.1,2.1s2.1,0.9,2.1,0.9L29,40.4l9.5,9.5v2.3c-1.3,1.4-2.5,2.7-3.4,3.7c-5,5.5-10.9,14.2-10.9,14.2S13.4,62.4,12,61.3   s-2.9,0.4-2.9,0.4l-4.7,4.7l10.5,13l2.5-1c0,0-0.9,0.9-2.1,2.8c-1.1,1.8-2.3,4.6-2.4,5c0,0,0,0,0,0c0,0,0,0,0,0   c0.4-0.2,3.3-1.3,5-2.4c1.9-1.2,2.8-2.1,2.8-2.1l-1,2.5l13,10.5l4.7-4.7c0,0,1.5-1.5,0.4-2.9c-1.1-1.4-8.9-12.2-8.9-12.2   s8.7-5.9,14.2-10.9c1.1-1,2.3-2.1,3.7-3.4h2.3l9.5,9.5l31.8,22.4c0,0,1.6,1.2,0.9,2.1c-0.7,0.9,5.8-5.1,2.1-9.1   c-3.7-4-22.1-24-22.1-24l-2.2-5.8l5.6-5.6c0,0,0.6-0.8,1.4-1.9c0.1,0.4-0.4,1-0.4,1l1.8,0.6c0,0,0.5-1.3,0.8-2.2   c0.2-0.6-0.4-1.3-0.8-1.6c0.4-0.6,0.8-1.2,1.2-1.8c0.9,1,2.1,2.3,3,3.2c1.9,1.9,2.1,1.8,2.3,1.6c0.2-0.2,0.3-0.4-1.6-2.3   c-1-1-2.3-2.2-3.4-3.1c0.7-1.2,1-2.2,0.7-2.5c0,0-0.1,0-0.1-0.1c0-0.1,0-0.1-0.1-0.1c-0.3-0.3-1.3,0.1-2.6,0.7   c-1-1.1-2.4-2.6-3.4-3.7c-1.9-1.9-2.1-1.8-2.3-1.6c-0.2,0.2-0.3,0.4,1.6,2.3c1,1,2.4,2.4,3.6,3.3c-0.6,0.4-1.2,0.8-1.8,1.2   c-0.3-0.4-1-1.1-1.7-0.9c-0.9,0.3-2.2,0.8-2.2,0.8l0.6,1.8c0,0,0.7-0.6,1.1-0.3c0,0,0,0,0.1,0c-1.1,0.8-2,1.5-2,1.5l-6.2,6.2   l-3.2-5.9c1.7-1.9,3.2-3.8,4.5-5.5C65.9,40.9,73.9,29.2,72.1,27.2L72.1,27.2C72.1,27.2,72.1,27.2,72.1,27.2z M56.7,36.3   c0.3,0.2,0.8,0.4,1.4,0.8c1.1,0.6,1.9,1.4,1.9,1.4l-2,2c-0.1,0.1-0.4,0.2-0.5,0.1c0,0-0.7-0.6-1.5-1.1c-0.8-0.5-1.7-0.9-1.7-0.9   c-0.2-0.1-0.2-0.4-0.1-0.5l1.7-1.7C56.1,36.2,56.5,36.2,56.7,36.3z M52.8,38l1.7-1.5l-1.1,2.1L52.8,38z M50.1,40.7   C50,40.7,50,40.7,50.1,40.7l2.4-2.4c0,0,0,0,0,0l0.5,0.5c0.1,0.1,0.1,0.4,0,0.5L51,41.2c-0.1,0.1-0.4,0.1-0.5,0L50.1,40.7z    M46.7,44.3c0.6-0.6,1.2-0.9,1.4-0.7c0.2,0.2-0.1,0.8-0.7,1.4c-0.6,0.6-1.2,0.9-1.4,0.7C45.8,45.5,46.1,44.9,46.7,44.3z M43.8,47.2   c0.6-0.6,1.2-0.9,1.4-0.7c0.2,0.2-0.1,0.8-0.7,1.4c-0.6,0.6-1.2,0.9-1.4,0.7C43,48.3,43.3,47.7,43.8,47.2z M41,50   c0.6-0.6,1.2-0.9,1.4-0.7c0.2,0.2-0.1,0.8-0.7,1.4s-1.2,0.9-1.4,0.7C40.1,51.2,40.4,50.6,41,50z M31.6,60.4c0.5-0.6,1-1,1.2-0.9   c0.2,0.2,0,0.8-0.4,1.5c-0.5,0.6-1,1-1.2,0.9C31,61.7,31.2,61.1,31.6,60.4z M39.7,66.4c0.2,0.2-0.2,0.8-0.9,1.2   c-0.6,0.5-1.3,0.7-1.5,0.4c-0.2-0.2,0.2-0.8,0.9-1.2C38.9,66.4,39.5,66.2,39.7,66.4z M49.2,58.3c-0.6,0.6-1.2,0.9-1.4,0.7   s0.1-0.8,0.7-1.4c0.6-0.6,1.2-0.9,1.4-0.7S49.8,57.7,49.2,58.3z M52.1,55.4c-0.6,0.6-1.2,0.9-1.4,0.7c-0.2-0.2,0.1-0.8,0.7-1.4   s1.2-0.9,1.4-0.7C53,54.3,52.7,54.9,52.1,55.4z M55,52.6c-0.6,0.6-1.2,0.9-1.4,0.7s0.1-0.8,0.7-1.4s1.2-0.9,1.4-0.7   S55.5,52,55,52.6z M60.9,46.8C61,46.8,61,46.8,60.9,46.8l-2.4,2.4c0,0,0,0,0,0L58,48.7c-0.1-0.1-0.1-0.4,0-0.5l1.9-1.9   c0.1-0.1,0.4-0.1,0.5,0L60.9,46.8z M61.3,46.5l-0.6-0.6l2.1-1.1L61.3,46.5z M62.2,41.1c0.3,0.6,0.6,1.1,0.8,1.4   c0.1,0.3,0.1,0.6-0.1,0.8L61.2,45c-0.2,0.2-0.4,0.1-0.5-0.1c0,0-0.4-0.9-0.9-1.7c-0.5-0.8-1.1-1.5-1.1-1.5   c-0.1-0.2-0.1-0.4,0.1-0.5l2-2C60.8,39.2,61.6,40.1,62.2,41.1z" style="fill: rgb(238, 238, 238);"/>
  </g>
</svg>