<?xml version="1.0" encoding="utf-8"?>
<svg viewBox="0 0 100 100" style="enable-background:new 0 0 100 100;" xmlns="http://www.w3.org/2000/svg">
  <g>
    <path d="M96.4,79.1L65.6,42.7c0,0,6.2-6.2,18.5-18.4C96.4,12.1,92.4,8,92.4,8l0,0c0,0-4-4-16.3,8.2C63.8,28.4,57.6,34.6,57.6,34.6   l-36.2-31c0,0-0.9-0.6-1.4,0C19.4,4.2,17,6.6,17,6.6L17.5,7l25.1,34.8c0,0-1.3,1.1-2.4,2.2c-1.1,1.1-4,4-5.2,5.9   c-1.3,1.9-1.7,2.8-1.7,2.8l1.9,1.9l-0.1,0.9l-2.5,3.1l0.6,4c0,0-1.8,2.7-3,4.7c-1.2,2-2.8,4.7-2.8,4.7L6.8,63.8   c0,0-0.6,0.2-1.3,0.9c-0.7,0.7-1.8,2.1-1.8,2.1L21,79l-1,1.3l0,0l1.4-1l11.9,17c0,0,1.4-1.1,2.1-1.8c0.7-0.7,0.9-1.3,0.9-1.3   l-8-20.3c0,0,2.7-1.6,4.7-2.8c2-1.2,4.7-3,4.7-3l4,0.6l3.1-2.5l0.9-0.1l1.9,1.9c0,0,0.9-0.4,2.8-1.7c1.9-1.3,4.7-4.1,5.9-5.2   c1.1-1.1,2.3-2.4,2.3-2.4L93.1,83l0.4,0.4c0,0,2.4-2.4,2.9-2.9C97,79.9,96.4,79.1,96.4,79.1z M55.9,38.5c-0.2,0.2-1.4-0.3-1-0.7   c0.4-0.4,0.6-0.6,1-1c0.3-0.3,0.9,0.8,0.7,1C56.4,37.9,56,38.3,55.9,38.5z M58.3,36c-0.2,0.2-1.4-0.3-1-0.7c0.4-0.4,0.6-0.6,1-1   c0.3-0.3,0.9,0.8,0.7,1C58.9,35.5,58.5,35.9,58.3,36z M60.8,33.6c-0.2,0.2-1.4-0.3-1-0.7c0.4-0.4,0.6-0.6,1-1   c0.3-0.3,0.9,0.8,0.7,1C61.3,33.1,60.9,33.5,60.8,33.6z M63.2,31.2c-0.2,0.2-1.4-0.3-1-0.7c0.4-0.4,0.6-0.6,1-1   c0.3-0.3,0.9,0.8,0.7,1C63.7,30.7,63.3,31.1,63.2,31.2z M65.7,28.7c-0.2,0.2-1.4-0.3-1-0.7c0.4-0.4,0.6-0.6,1-1   c0.3-0.3,0.9,0.8,0.7,1C66.2,28.2,65.8,28.6,65.7,28.7z M68.1,26.3c-0.2,0.2-1.4-0.3-1-0.7c0.4-0.4,0.6-0.6,1-1   c0.3-0.3,0.9,0.8,0.7,1C68.6,25.8,68.2,26.2,68.1,26.3z M70.8,23.6c-0.2,0.2-1.4-0.3-1-0.7c0.4-0.4,0.6-0.6,1-1   c0.3-0.3,0.9,0.8,0.7,1C71.3,23.1,70.9,23.5,70.8,23.6z M74.4,20.5c-0.4-0.4-0.8-0.8-0.8-0.8s-0.2-0.2,0.1-0.6   c0.4-0.4,2.3-2.3,2.1-2c0,0,0,0.7,0.1,1.2c0.1,0.5,0.3,1.2-0.2,1.6c-0.4,0.4-0.5,0.5-0.5,0.5S74.8,20.8,74.4,20.5z M80.3,19.5   c-0.2,0.2-0.6,0.2-0.6,0.2s-1.2-0.7-2.6-0.4c-0.5,0.1-0.7-0.4-0.7-0.4S76.1,17,76.5,16c0.2-0.5,0.6-0.7,0.6-0.7s0.6-0.4,1.7-0.4   l-0.3,0.3c0,0,0.8,0,1.7,0.4c1.1,0.4,1.6,1.1,1.6,1.1l0.4-0.4c0.1,0.1,0.3,0.2,0.4,0.3c0.2,0.2,0.3,0.3-0.1,0.7   C82.1,17.7,80.6,19.2,80.3,19.5z M80,25.1c0,0,0.1-0.1,0.5-0.5c0.4-0.4,1-0.3,1.6-0.2c0.5,0.1,1.2,0.1,1.2,0.1   c0.3-0.2-1.7,1.7-2,2.1c-0.4,0.4-0.6,0.1-0.6,0.1s-0.5-0.5-0.8-0.8C79.5,25.6,80,25.1,80,25.1z M62.5,45.4c-0.4,0.4-1-0.8-0.7-1   c0.1-0.1,0.5-0.5,0.7-0.7c0.2-0.2,1.3,0.4,1,0.7C63.2,44.8,62.9,45,62.5,45.4z M65,43c-0.4,0.4-1-0.8-0.7-1   c0.1-0.1,0.5-0.5,0.7-0.7c0.2-0.2,1.3,0.4,1,0.7C65.6,42.3,65.4,42.6,65,43z M67.4,40.5c-0.4,0.4-1-0.8-0.7-1   c0.1-0.1,0.5-0.5,0.7-0.7c0.2-0.2,1.3,0.4,1,0.7C68,39.9,67.8,40.2,67.4,40.5z M69.8,38.1c-0.4,0.4-1-0.8-0.7-1   c0.1-0.1,0.5-0.5,0.7-0.7c0.2-0.2,1.3,0.4,1,0.7C70.5,37.5,70.2,37.7,69.8,38.1z M72.3,35.7c-0.4,0.4-1-0.8-0.7-1   c0.1-0.1,0.5-0.5,0.7-0.7c0.2-0.2,1.3,0.4,1,0.7C72.9,35.1,72.7,35.3,72.3,35.7z M74.7,33.3c-0.4,0.4-1-0.8-0.7-1   c0.1-0.1,0.5-0.5,0.7-0.7c0.2-0.2,1.3,0.4,1,0.7C75.4,32.6,75.1,32.9,74.7,33.3z M77.4,30.6c-0.4,0.4-1-0.8-0.7-1   c0.1-0.1,0.5-0.5,0.7-0.7c0.2-0.2,1.3,0.4,1,0.7C78.1,29.9,77.8,30.2,77.4,30.6z M84.3,23.9c-1,0.4-2.8-0.1-2.8-0.1   s-0.5-0.2-0.4-0.7c0.4-1.4-0.3-2.6-0.3-2.6s-0.1-0.3,0.2-0.6c0.2-0.2,1.7-1.7,2.1-2.1c0.4-0.4,0.6-0.3,0.7-0.1   c0.1,0.1,0.2,0.3,0.3,0.4l-0.4,0.4c0,0,0.7,0.6,1.1,1.6c0.4,0.9,0.4,1.7,0.4,1.7l0.3-0.3c0,1-0.4,1.7-0.4,1.7S84.8,23.8,84.3,23.9z   "/>
  </g>
</svg>