<?xml version="1.0" encoding="utf-8"?>
<svg viewBox="0 0 100 100" xmlns="http://www.w3.org/2000/svg">
  <g transform="matrix(1.09831404686, 0, 0, 1.101040959358, -6.745555919145, -5.394412134755)" style="transform-origin: -30.6293px 1.93405px;">
    <path d="M85.4,84.4c1.1-1.1,4.4-4.4,4.9-4.9c0.6-0.6,0-1.5,0-1.5L68.1,38.9c6.8-6.8,7-7,17.9-17.9C97.3,9.9,94,5.5,94,5.5l0,0   c0,0-4.4-3.2-15.6,8C67.5,24.3,67.3,24.5,60.5,31.3L21.4,9c0,0-0.9-0.6-1.5,0c-0.5,0.5-3.7,3.7-4.9,4.9l33.4,29.8l-1.7,1.7   l-0.5-0.5c0,0,1-1.3,0.4-1.9c-0.6-0.6-2.4-2.4-2.4-2.4s-1-0.8-4.8,3c-0.1,0.1-0.1,0.1-0.2,0.2c-1.4,1.4-3.5,3.6-4.6,5.3   c-1.3,2-2.4,3.5-2.4,3.5l2,2l0.2,0.6l-1,0.9l1.4,3.9c0,0-3.6,4.5-4.8,6.5c-1.2,2-2.1,4.1-2.1,4.1L6.7,62.2c0,0-0.6,0.2-1.3,0.9   c-0.7,0.7-2,2.3-2,2.3l17.6,12.4l-0.9,1.4l0,0l1.4-0.9l12.6,17.6c0,0,1.5-1.2,2.2-1.9c0.7-0.7,0.9-1.3,0.9-1.3L29,71.5   c0,0,2-0.9,4.1-2.1c2-1.2,6.5-4.8,6.5-4.8l3.9,1.4l0.8-0.8l0.6,0.2l1.9,1.9c0,0,1.7-1.3,3.7-2.6c2-1.3,4.8-4.2,6-5.3   c0.2-0.2,0.5-0.5,0.8-0.8c2.3-2.7,1.7-3.5,1.7-3.5s-1.8-1.8-2.4-2.4c-0.6-0.6-1.9,0.4-1.9,0.4l-0.5-0.5l1.7-1.7L85.4,84.4z    M55.9,37.9c-0.2,0.2-1.3-0.2-0.9-0.6c0.4-0.4,0.7-0.7,1-1c0.3-0.3,0.8,0.7,0.6,0.9C56.4,37.4,56,37.8,55.9,37.9z M58.4,35.4   c-0.2,0.2-1.3-0.2-0.9-0.6c0.4-0.4,0.7-0.7,1-1c0.3-0.3,0.8,0.7,0.6,0.9C58.9,34.9,58.5,35.3,58.4,35.4z M60.8,33   c-0.2,0.2-1.3-0.2-0.9-0.6c0.4-0.4,0.7-0.7,1-1c0.3-0.3,0.8,0.7,0.6,0.9C61.4,32.5,61,32.8,60.8,33z M63.3,30.5   c-0.2,0.2-1.3-0.2-0.9-0.6c0.4-0.4,0.7-0.7,1-1c0.3-0.3,0.8,0.7,0.6,0.9C63.9,30,63.5,30.4,63.3,30.5z M65.8,28   c-0.2,0.2-1.3-0.2-0.9-0.6c0.4-0.4,0.7-0.7,1-1c0.3-0.3,0.8,0.7,0.6,0.9C66.3,27.5,65.9,27.9,65.8,28z M76.8,17.5   c-0.4-0.4-0.8-0.8-0.8-0.8s-0.2-0.2,0.1-0.6c0.3-0.3,1.7-1.7,2.3-2.3c0.2-0.2,0.3-0.1,0.3-0.1c0.2,0.2,0,0.5-0.1,1.3   c-0.1,0.6,0.1,1.2-0.3,1.6c-0.4,0.4-0.8,0.7-0.8,0.7S77.2,17.9,76.8,17.5z M84.4,14.4l-2.1,2.1c0,0-0.2,0.2-0.4,0   c-0.2-0.1-0.7-0.4-1.2-0.4c-0.5,0-1.1,0.1-1.1,0.1s-0.3,0-0.3-0.3c0-0.3,0.3-2.4,0.3-2.4s0.2-0.7,0.7-0.8c0.5-0.1,1.9-1,4.2,1.3   C84.6,14.3,84.4,14.4,84.4,14.4z M83.3,20c0,0,0.1-0.7,0.1-1.1c0-0.5-0.3-1-0.4-1.2c-0.1-0.2,0-0.4,0-0.4l2.1-2.1   c0,0,0.2-0.2,0.4,0c2.3,2.3,1.4,3.7,1.3,4.2C86.7,19.8,86,20,86,20s-2.1,0.3-2.4,0.3C83.3,20.3,83.3,20,83.3,20z M62,44.4   c-0.4,0.4-0.9-0.7-0.6-0.9c0.1-0.1,0.5-0.5,0.7-0.7c0.2-0.2,1.2,0.3,0.9,0.6C62.7,43.8,62.4,44,62,44.4z M64.5,41.9   c-0.4,0.4-0.9-0.7-0.6-0.9c0.1-0.1,0.5-0.5,0.7-0.7c0.2-0.2,1.2,0.3,0.9,0.6C65.2,41.3,64.9,41.5,64.5,41.9z M67,39.4   c-0.4,0.4-0.9-0.7-0.6-0.9c0.1-0.1,0.5-0.5,0.7-0.7c0.2-0.2,1.2,0.3,0.9,0.6C67.7,38.8,67.4,39,67,39.4z M69.5,37   c-0.4,0.4-0.9-0.7-0.6-0.9c0.1-0.1,0.5-0.5,0.7-0.7c0.2-0.2,1.2,0.3,0.9,0.6C70.2,36.3,69.9,36.6,69.5,37z M72,34.5   c-0.4,0.4-0.9-0.7-0.6-0.9c0.1-0.1,0.5-0.5,0.7-0.7c0.2-0.2,1.2,0.3,0.9,0.6C72.6,33.8,72.4,34.1,72,34.5z M77,29.5   c-0.4,0.4-0.9-0.7-0.6-0.9c0.1-0.1,0.5-0.5,0.7-0.7c0.2-0.2,1.2,0.3,0.9,0.6C77.6,28.9,77.4,29.1,77,29.5z M82.8,23.5   c0,0-0.4-0.4-0.8-0.8c-0.4-0.4,0.1-0.8,0.1-0.8s0.3-0.4,0.7-0.8c0.4-0.4,1-0.2,1.6-0.3c0.8-0.1,1.1-0.3,1.3-0.1   c0,0,0.1,0.2-0.1,0.3c-0.6,0.6-2,2-2.3,2.3C83,23.7,82.8,23.5,82.8,23.5z"/>
  </g>
</svg>