<?xml version="1.0" encoding="utf-8"?>
<svg viewBox="0 0 100 40" xmlns="http://www.w3.org/2000/svg">
  <g transform="matrix(0.008426000364, 0, 0, -0.008426000364, -6379.013667967479, -2723.70530662332)" fill="#000000" stroke="none" style="transform-origin: 6429.01px 2743.71px;">
    <path d="M11341 5097 c-6 -14 -18 -28 -28 -31 -10 -4 -65 -92 -131 -210 -62&#10;-112 -119 -209 -127 -216 -8 -7 -12 -16 -9 -21 10 -16 -576 -1100 -600 -1110&#10;-12 -4 -273 -69 -581 -144 -308 -74 -580 -142 -605 -150 -25 -8 -227 -60 -450&#10;-116 -396 -99 -407 -101 -485 -94 -44 4 -109 8 -145 11 -287 16 -1020 66&#10;-1037 70 -13 2 -23 8 -23 13 0 5 63 44 140 86 77 42 140 80 140 83 0 4 -33 21&#10;-73 38 -77 33 -91 54 -42 65 17 3 118 49 225 102 217 108 234 117 228 123 -3&#10;2 -125 22 -273 44 -148 23 -273 44 -279 47 -5 4 -31 8 -56 9 -25 1 -110 8&#10;-190 15 -80 7 -233 13 -340 13 -176 1 -201 -1 -255 -21 -33 -12 -256 -79 -495&#10;-148 -239 -70 -509 -149 -599 -176 -155 -46 -217 -56 -268 -43 -13 4 -23 11&#10;-23 18 0 6 20 47 45 90 25 43 43 82 39 85 -3 3 -12 -3 -20 -14 -8 -11 -44 -57&#10;-79 -102 -62 -79 -67 -83 -104 -83 -22 0 -42 4 -45 9 -3 4 15 40 39 80 24 39&#10;40 71 35 71 -5 0 -37 -36 -71 -79 -35 -44 -73 -82 -86 -86 -14 -3 -20 -10 -17&#10;-20 3 -8 -4 -30 -16 -50 l-22 -35 -129 0 c-128 0 -130 0 -155 27 l-24 26 -28&#10;-26 c-26 -25 -39 -28 -148 -38 -65 -6 -234 -14 -374 -18 -278 -7 -295 -11&#10;-394 -79 -37 -26 -38 -27 -33 -74 l6 -48 -67 -38 c-59 -33 -211 -132 -373&#10;-243 l-55 -38 -365 -10 c-391 -11 -648 -29 -879 -61 -249 -35 -333 -51 -386&#10;-76 -28 -13 -55 -24 -59 -24 -4 0 -39 -9 -76 -20 -55 -17 -69 -25 -69 -40 0&#10;-11 -4 -20 -10 -20 -5 0 -10 3 -10 8 0 4 -10 12 -23 17 -21 9 -22 18 -29 145&#10;-7 140 -20 218 -66 382 -44 158 -49 136 -31 -125 7 -93 8 -217 4 -302 l-7&#10;-144 -142 -70 c-155 -77 -241 -136 -241 -166 0 -30 114 -89 272 -141 l142 -46&#10;5 -51 c13 -123 37 -309 50 -394 8 -50 20 -155 27 -232 7 -78 17 -141 21 -141&#10;4 0 8 42 8 93 0 50 5 161 12 245 11 145 5 283 -19 419 -4 27 -2 32 18 35 15 2&#10;25 12 29 28 6 24 7 24 27 -16 46 -88 174 -186 325 -247 29 -12 51 -37 106&#10;-119 116 -171 125 -181 173 -192 49 -12 62 -41 18 -41 -21 -1 -96 -46 -143&#10;-86 -10 -9 67 -125 92 -138 14 -8 18 -22 17 -71 l0 -62 -48 -18 c-119 -45&#10;-189 -146 -191 -273 0 -56 4 -81 21 -113 50 -94 129 -143 230 -144 105 0 156&#10;16 213 67 64 58 91 110 98 190 8 107 -44 200 -145 260 -23 13 -43 28 -44 31 0&#10;4 -3 23 -5 42 -15 116 -6 141 66 185 33 20 60 40 60 45 0 5 38 29 84 54 69 38&#10;100 48 163 56 77 10 82 9 231 -35 213 -63 269 -77 332 -82 49 -4 64 0 123 31&#10;l68 35 17 -31 c54 -99 189 -220 283 -253 62 -22 235 -35 494 -36 127 -1 277&#10;-5 335 -10 132 -10 119 -10 162 -3 31 5 41 2 61 -20 29 -31 37 -32 37 -7 0 10&#10;7 22 16 25 21 8 393 -5 399 -14 2 -4 -2 -28 -10 -55 -33 -107 -12 -211 58&#10;-288 59 -65 107 -87 189 -87 123 0 165 15 233 84 47 47 65 73 75 111 16 56 17&#10;156 1 196 -5 15 -7 30 -4 33 11 10 141 7 148 -4 4 -6 -10 -29 -30 -52 -60 -66&#10;-79 -119 -79 -223 -1 -107 21 -166 86 -232 58 -60 122 -85 217 -85 141 0 259&#10;71 318 190 52 106 33 249 -47 346 -22 26 -38 51 -35 55 2 5 53 11 112 14 140&#10;9 229 24 502 87 134 31 234 49 250 45 27 -6 152 19 591 120 505 115 684 171&#10;916 288 180 90 284 152 314 187 24 29 37 32 544 130 l518 102 22 -21 c12 -12&#10;30 -21 39 -21 36 0 154 45 182 70 25 21 58 31 183 54 l153 28 24 -22 c13 -12&#10;26 -38 29 -58 18 -101 13 -95 65 -87 81 12 83 15 76 103 -3 42 -2 83 2 89 8&#10;12 452 103 500 103 13 0 30 -12 43 -30 19 -26 27 -30 68 -29 26 0 63 5 82 12&#10;32 11 35 16 40 56 l5 45 80 17 c165 35 436 168 544 266 80 71 127 141 113 164&#10;-25 40 22 48 358 64 74 4 142 9 150 12 23 8 -77 40 -245 79 -117 28 -181 37&#10;-287 41 -87 4 -138 10 -141 17 -4 12 -6 -6 56 831 26 341 51 685 57 765 5 80&#10;17 222 26 315 17 175 19 213 12 220 -9 9 -392 35 -400 27 -9 -9 -148 -382&#10;-148 -399 0 -7 8 -17 18 -23 13 -8 7 -10 -28 -8 -40 3 -45 6 -43 25 1 12 37&#10;104 79 205 66 160 75 187 67 217 -10 43 -30 51 -42 18z m-6501 -1799 c0 -20&#10;-32 -48 -57 -48 -25 0 -29 11 -13 41 12 21 70 27 70 7z m-1063 -492 c21 -72 8&#10;-75 -81 -19 -41 26 -76 51 -76 55 0 9 45 16 99 14 44 -1 44 -1 58 -50z m1275&#10;-45 c4 -3 -18 -68 -50 -144 -59 -142 -71 -156 -106 -121 -13 12 -16 41 -16&#10;151 l0 135 83 -7 c45 -4 85 -10 89 -14z m910 -17 l67 -7 -21 -28 c-20 -27 -21&#10;-30 -4 -48 12 -13 14 -21 6 -26 -6 -4 -40 -47 -77 -97 l-66 -90 -61 7 c-34 3&#10;-67 12 -74 19 -21 21 -22 253 -2 266 17 11 134 13 232 4z m332 -31 c-3 -21&#10;-13 -42 -22 -48 -9 -5 -27 -20 -40 -33 -35 -33 -41 -18 -7 18 22 23 27 35 22&#10;59 -6 30 -6 31 46 40 4 0 5 -16 1 -36z m346 7 c14 -14 20 -33 20 -68 0 -40 -7&#10;-58 -47 -117 l-48 -70 -3 124 c-1 69 0 131 2 138 8 20 53 16 76 -7z m374 -6&#10;c13 -12 16 -39 16 -129 0 -142 -10 -159 -91 -160 l-54 0 2 93 c1 59 7 109 18&#10;134 8 22 13 49 10 59 -6 17 -1 19 39 19 27 0 51 -6 60 -16z m-3388 -21 c18&#10;-16 34 -33 34 -40 0 -15 -77 -76 -83 -66 -2 5 -3 31 -1 58 2 28 3 56 3 63 1&#10;17 8 15 47 -15z m3672 -1 c17 -21 9 -196 -9 -218 -9 -11 -9 -17 0 -28 18 -21&#10;-12 -40 -51 -32 -56 11 -58 17 -58 151 0 158 1 159 59 151 26 -3 52 -14 59&#10;-24z m338 7 c13 -21 8 -257 -6 -274 -9 -11 -32 -15 -86 -15 -94 0 -97 4 -92&#10;154 4 142 6 146 104 146 43 0 76 -5 80 -11z m268 -4 c20 -20 20 -220 0 -239&#10;-14 -15 -90 -30 -105 -21 -10 7 -13 258 -2 268 13 13 92 7 107 -8z m-1520&#10;-226 c-18 -20 -44 -26 -44 -9 0 5 12 35 27 67 l27 58 4 -49 c2 -35 -1 -53 -14&#10;-67z m-4350 -1090 c5 -5 7 -11 4 -15 -13 -12 -213 -114 -226 -114 -18 0 -27&#10;29 -13 43 6 6 11 27 11 47 0 57 12 63 120 55 52 -4 99 -11 104 -16z m-306 -92&#10;c4 -71 -9 -97 -49 -97 -34 0 -79 41 -79 71 0 19 97 92 115 86 5 -2 11 -29 13&#10;-60z"/>
  </g>
</svg>