<?xml version="1.0" encoding="utf-8"?>
<svg viewBox="0 0 100 100" xmlns="http://www.w3.org/2000/svg">
  <g transform="matrix(1.1045149564743042, 0, 0, 1.107828974723816, -5.0807647705078125, -5.465285778045654)">
    <path d="M94.8,80.8l-31-36.4c6.7-6.7,4.2-4.2,14.9-14.9c12.9-12.9,9-17.1,9-17.1l0,0c0,0-4-4-17.1,9C59.8,32,62.4,29.5,55.7,36.2   l-36.4-31c0,0-0.9-0.6-1.4,0c-0.6,0.6-3,3-3,3l0.5,0.5L40,43.4c0,0-1.7,1.6-2.9,2.7c-1.1,1.1-3.1,3.1-4.4,5.1   c-1.3,1.9-1.1,2.2-1.1,2.2l2.2,2.2l-0.1,0.9l-3.1,3.7l0.6,4c0,0-2.3,3.2-3.5,5.2c-1.2,2-1.7,3.6-1.7,3.6L8,62.9   c0,0-0.6,0.2-1.3,0.9c-0.7,0.7-2.1,2.4-2.1,2.4l13.8,15.3l-0.9,1.4l0,0l1.4-0.9l15,13.2c0,0,1.6-1.3,2.3-2c0.7-0.7,0.9-1.3,0.9-1.3   L27,74.2c0,0,1.6-0.5,3.6-1.7c2-1.2,5.2-3.5,5.2-3.5l4,0.6l3.6-3l0.9-0.1l2.2,2.2c0,0,0.4,0,2.4-1.3c1.9-1.3,3.9-3.3,5.1-4.4   c1.1-1.1,2.7-2.9,2.7-2.9l34.8,24.6l0.5,0.5c0,0,2.4-2.4,3-3C95.4,81.6,94.8,80.8,94.8,80.8z M53.9,40.6c-0.2,0.2-1.6-0.5-1.2-0.9   c0.4-0.4,0.6-0.6,1-1c0.3-0.3,1.1,1,0.9,1.2C54.4,40.1,54,40.4,53.9,40.6z M56.9,37.5c-0.2,0.2-1.6-0.5-1.2-0.9   c0.4-0.4,0.6-0.6,1-1c0.3-0.3,1.1,1,0.9,1.2C57.4,37,57.1,37.4,56.9,37.5z M59.8,34.6c-0.2,0.2-1.6-0.5-1.2-0.9   c0.4-0.4,0.6-0.6,1-1c0.3-0.3,1.1,1,0.9,1.2C60.3,34.1,59.9,34.5,59.8,34.6z M62.8,31.6c-0.2,0.2-1.6-0.5-1.2-0.9   c0.4-0.4,0.6-0.6,1-1c0.3-0.3,1.1,1,0.9,1.2C63.3,31.1,62.9,31.5,62.8,31.6z M67.1,27.4c-0.4-0.4-0.8-0.8-0.8-0.8s-0.2-0.2,0.2-0.7   c0.4-0.4,2.8-2.8,2.5-2.5c0,0-0.1,0.8,0,1.3c0.1,0.6,0.2,1.3-0.3,1.8C68.2,27,68,27.1,68,27.1S67.5,27.8,67.1,27.4z M73.8,25.7   c-0.3,0.3-0.6,0.2-0.6,0.2s-1.2-0.7-2.8-0.1c-0.6,0.2-0.7-0.4-0.7-0.4s-0.3-2,0.2-3.1c0.2-0.5,0.7-0.8,0.7-0.8s0.7-0.5,1.9-0.6   l-0.3,0.3c0,0,0.9-0.1,1.9,0.2c1.1,0.4,1.7,1,1.7,1l0.4-0.4c0.1,0.1,0.3,0.2,0.4,0.3c0.2,0.2,0.3,0.3-0.2,0.8   C75.9,23.6,74.1,25.4,73.8,25.7z M72.9,32c0,0,0.1-0.1,0.6-0.6c0.5-0.5,1.2-0.4,1.8-0.3c0.6,0.1,1.3,0,1.3,0c0.3-0.2-2,2.1-2.5,2.5   c-0.4,0.4-0.7,0.2-0.7,0.2s-0.5-0.5-0.8-0.8C72.3,32.5,72.9,32,72.9,32z M60.4,47.4c-0.4,0.4-1.2-1-1-1.3c0.1-0.1,0.5-0.5,0.7-0.7   c0.2-0.2,1.6,0.7,1.2,1C61,46.7,60.8,47,60.4,47.4z M63.4,44.3c-0.4,0.4-1.2-1-1-1.3c0.1-0.1,0.5-0.5,0.7-0.7   c0.2-0.2,1.6,0.6,1.2,1C64.1,43.6,63.8,43.9,63.4,44.3z M66.3,41.4c-0.4,0.4-1.2-1-1-1.3c0.1-0.1,0.5-0.5,0.7-0.7   c0.2-0.2,1.6,0.7,1.2,1C66.9,40.8,66.7,41,66.3,41.4z M69.3,38.4c-0.4,0.4-1.2-1-1-1.3c0.1-0.1,0.5-0.5,0.7-0.7   c0.2-0.2,1.6,0.7,1.2,1C69.9,37.8,69.7,38,69.3,38.4z M77.8,30.2c-1.1,0.5-3.1,0.2-3.1,0.2s-0.6-0.1-0.4-0.7   c0.6-1.6-0.1-2.8-0.1-2.8s0-0.4,0.2-0.6c0.3-0.3,2.1-2.1,2.6-2.6c0.5-0.5,0.7-0.3,0.8-0.2c0.1,0.1,0.2,0.3,0.3,0.4l-0.4,0.4   c0,0,0.7,0.5,1,1.7c0.3,1,0.2,1.9,0.2,1.9l0.3-0.3c-0.1,1.1-0.6,1.9-0.6,1.9S78.3,29.9,77.8,30.2z"/>
  </g>
</svg>