<?xml version="1.0" encoding="utf-8"?>
<svg viewBox="0 0 100 100" xmlns="http://www.w3.org/2000/svg">
  <g transform="matrix(1.134984016418, 0, 0, 1.135789990425, 0.746518527325, -1.177779657693)" style="transform-origin: 49.2535px 51.1778px;">
    <path d="M92.4,78L67.6,42.5l-0.1,0.1c-0.1,0-0.2-0.1-0.3-0.2c-0.5-0.5-0.3-1.7,0.7-2.6c0.9-0.9,2.1-1.2,2.6-0.7   c0.1,0.1,0.1,0.2,0.2,0.3L70.2,40c6.3-6.2,11.8-12.2,14.6-15.3c6.4-7.2,6.7-13.3,5.4-14.5c-1.2-1.2-7.5-1-14.6,5.4   c-3,2.7-8.8,8-14.8,14.2c0.1,0,0.2,0.1,0.3,0.2c0.5,0.5,0.2,1.7-0.6,2.6c-0.9,0.9-2.1,1.2-2.6,0.7c-0.1-0.1-0.2-0.2-0.2-0.3   l0.2-0.2L22.2,8c0,0-1.9-1.9-3.8,0c-1.9,1.9-4.6,4.6-4.6,4.6L41.3,40l-4.2,4.2c-3,3.1-5.3,7.6-5.3,7.6l2.3,2.3l2.7-1.1l-1.9,5.7   l-4.2,6.5L9,57.2L5.2,61l19.4,13.5l-2,3.3l3.5-1.8l13.4,19.2l3.8-3.8l-8-21.7l6.5-4.2l5.7-1.9l-1.1,2.7l2.3,2.3   c0,0,4.6-2.3,7.6-5.3l4.2-4.2l27.5,27.4c0,0,2.7-2.7,4.6-4.6C94.3,79.9,92.4,78,92.4,78z M50.8,42.1c-0.9,0.9-2.1,1.2-2.6,0.7   c-0.1-0.1-0.1-0.2-0.2-0.3l3.1-3.2c0.1,0,0.2,0.1,0.3,0.2C52,40,51.7,41.2,50.8,42.1z M55.6,37.3c-0.9,0.9-2.1,1.2-2.6,0.7   c-0.1-0.1-0.1-0.2-0.2-0.3l3.1-3.1c0.1,0,0.2,0.1,0.3,0.2C56.8,35.2,56.5,36.4,55.6,37.3z M74.1,33.7c-1,0.1-1.3-0.5-1.3-1   c0-0.5,1.1-1.2,1.9-2.7c0.7,0.3,2,0.6,3.1,0.8C76.3,32.7,75.1,33.6,74.1,33.7z M78,23.3c0.3,0.3,2.4,1.6,1.4,4.8   c-0.2,0.5-0.7,1.3-1,1.8c-2.1,0.1-2.8-0.5-3.3-0.8c0.5-1.2,0.6-2.4-0.2-3.3C74.9,25.8,77.4,22.7,78,23.3z M72.1,20.8   c3.2-1,4.4,1.1,4.8,1.4c0.6,0.6-2.5,3.2-2.5,3.2c-0.9-0.8-2.1-0.7-3.3-0.2c-0.3-0.5-0.8-1.2-0.8-3.3C70.8,21.5,71.6,20.9,72.1,20.8   z M57.9,52.2c-0.1,0-0.2-0.1-0.3-0.2c-0.5-0.6-0.3-1.7,0.6-2.6c0.9-0.9,2.1-1.2,2.6-0.7c0.1,0.1,0.2,0.2,0.2,0.3L57.9,52.2z    M62.8,47.4c-0.1,0-0.2-0.1-0.3-0.2c-0.5-0.5-0.2-1.7,0.7-2.6c0.9-0.9,2.1-1.2,2.6-0.7c0.1,0.1,0.2,0.2,0.2,0.3L62.8,47.4z    M66.5,26.1c0.1-1,1-2.2,2.9-3.7c0.3,1.2,0.6,2.4,0.8,3.1c-1.5,0.8-2.2,1.8-2.7,1.9C67,27.4,66.5,27.1,66.5,26.1z" style="fill: rgb(238, 238, 238);"/>
  </g>
</svg>