<?xml version="1.0" encoding="utf-8"?>
<svg viewBox="0 0 100 75" xmlns="http://www.w3.org/2000/svg">
  <path d="M 50 0 C 45.406 0 41.666 3.737 41.666 8.334 L 8.333 8.334 C 3.739 8.334 0 12.07 0 16.666 L 0 66.666 C 0 71.262 3.739 75 8.333 75 L 91.667 75 C 96.26 75 100 71.262 100 66.666 L 100 16.666 C 100 12.07 96.26 8.334 91.666 8.334 L 58.333 8.334 C 58.333 3.737 54.594 0 50 0 Z M 50 4.167 C 52.299 4.167 54.166 6.037 54.166 8.334 L 54.166 16.667 L 45.833 16.667 L 45.833 8.334 C 45.833 6.037 47.701 4.167 50 4.167 Z M 8.333 12.5 L 41.667 12.5 L 41.667 18.75 C 41.667 19.902 42.599 20.834 43.75 20.834 L 56.25 20.834 C 57.402 20.834 58.333 19.902 58.333 18.75 L 58.333 12.5 L 91.667 12.5 C 93.966 12.5 95.833 14.37 95.833 16.666 L 95.833 66.666 C 95.833 68.963 93.965 70.833 91.667 70.833 L 8.333 70.833 C 6.034 70.833 4.167 68.963 4.167 66.666 L 4.167 16.666 C 4.167 14.37 6.035 12.5 8.333 12.5 Z M 31.25 20.834 C 25.504 20.834 20.833 25.507 20.833 31.25 C 20.833 36.993 25.504 41.666 31.25 41.666 C 36.995 41.666 41.666 36.993 41.666 31.25 C 41.666 25.507 36.995 20.834 31.25 20.834 Z M 31.25 25 C 34.696 25 37.5 27.804 37.5 31.25 C 37.5 34.696 34.696 37.5 31.25 37.5 C 27.803 37.5 25 34.696 25 31.25 C 25 27.804 27.803 25 31.25 25 Z M 52.083 37.5 C 50.932 37.5 50 38.432 50 39.584 C 50 40.735 50.932 41.667 52.083 41.667 L 85.417 41.667 C 86.568 41.667 87.5 40.735 87.5 39.584 C 87.5 38.432 86.568 37.5 85.416 37.5 L 52.083 37.5 Z M 31.25 43.75 C 25.504 43.75 20.329 46.088 17 48.049 C 14.225 49.687 12.5 52.867 12.5 56.348 L 12.5 57.682 C 12.5 60.339 14.502 62.5 16.963 62.5 L 45.536 62.5 C 47.998 62.5 50 60.339 50 57.682 L 50 56.348 C 50 52.867 48.274 49.687 45.499 48.049 C 42.171 46.088 36.995 43.75 31.25 43.75 Z M 31.25 47.916 C 36.059 47.916 40.503 49.941 43.384 51.638 C 44.873 52.517 45.833 54.364 45.833 56.348 L 45.833 57.682 C 45.833 58.115 45.585 58.333 45.536 58.333 L 16.963 58.333 C 16.915 58.333 16.666 58.115 16.666 57.682 L 16.666 56.348 C 16.666 54.364 17.627 52.517 19.116 51.638 C 21.997 49.941 26.44 47.916 31.25 47.916 Z M 60.416 50 C 59.265 50 58.333 50.932 58.333 52.084 C 58.333 53.235 59.265 54.167 60.416 54.167 L 85.416 54.167 C 86.568 54.167 87.5 53.235 87.5 52.084 C 87.5 50.932 86.568 50 85.416 50 L 60.416 50 Z"/>
</svg>