<svg xmlns="http://www.w3.org/2000/svg" viewBox="0 0 64 80" x="0px" y="0px"><title>Airplane-Plane-Maintenance-Tool-Gear</title><g><polygon points="34.279 23 31 23 31 27 35.612 27 34.279 23"/><path d="M29,37V35h2v8h4.2l1.826-8.217,1.952.434L38.58,37H49a1,1,0,0,0,1-1V34a5.006,5.006,0,0,0-5-5H23a1,1,0,0,1-.895-.553L19.382,23H16V36a1,1,0,0,0,1,1Zm14-6h4v2H43Zm-4,0h2v2H39Zm-4,0h2v2H35Zm-4,0h2v2H31Zm-4,0h2v2H27Zm-4,0h2v2H23Z"/><path d="M20.444,50.319a1,1,0,0,1,1.13-.092,21.012,21.012,0,0,0,4.911,2.037,1,1,0,0,1,.733.865L27.905,60H36.1l.687-6.871a1,1,0,0,1,.733-.865,21.012,21.012,0,0,0,4.911-2.037,1,1,0,0,1,1.13.092L48.9,54.7,54.694,48.9,50.32,43.556a1,1,0,0,1-.094-1.13,20.86,20.86,0,0,0,2.037-4.91,1,1,0,0,1,.865-.734L60,36.1v-8.19l-6.872-.687a1,1,0,0,1-.865-.734,20.887,20.887,0,0,0-2.037-4.91,1,1,0,0,1,.094-1.13L54.694,15.1,48.9,9.305l-5.347,4.376a1,1,0,0,1-1.13.092,21.012,21.012,0,0,0-4.911-2.037,1,1,0,0,1-.733-.865L36.1,4h-8.19l-.687,6.871a1,1,0,0,1-.733.865,21.012,21.012,0,0,0-4.911,2.037,1,1,0,0,1-1.13-.092L15.1,9.305,9.306,15.1l4.374,5.347a1,1,0,0,1,.094,1.13,20.887,20.887,0,0,0-2.037,4.91,1,1,0,0,1-.865.734L4,27.905V36.1l6.872.687a1,1,0,0,1,.865.734,20.86,20.86,0,0,0,2.037,4.91,1,1,0,0,1-.094,1.13L9.306,48.9,15.1,54.7ZM53,31h2v2H53ZM11,33H9V31h2ZM33,55H31V53h2Zm-1-6a17,17,0,0,1-14.057-7.437L19.6,40.437a15,15,0,0,0,24.808,0l1.653,1.126A17,17,0,0,1,32,49Zm15.557-.029-1.415-1.414,1.414-1.414,1.415,1.414Zm0-33.942,1.414,1.414-1.415,1.414-1.414-1.414ZM31,9h2v2H31Zm1,6a16.9,16.9,0,0,1,15.291,9.562l-1.8.876A15,15,0,0,0,22.079,20.75l-1.324-1.5A16.986,16.986,0,0,1,32,15Zm-15.557.029,1.415,1.414-1.414,1.414-1.415-1.414ZM14,36V22a1,1,0,0,1,1-1h5a1,1,0,0,1,.895.553L23.618,27H29V22a1,1,0,0,1,1-1h5a1,1,0,0,1,.949.684L37.721,27H45a7.008,7.008,0,0,1,7,7v2a3,3,0,0,1-3,3H38.135l-1.159,5.217A1,1,0,0,1,36,45H30a1,1,0,0,1-1-1V39H17A3,3,0,0,1,14,36Zm2.444,10.143,1.414,1.414-1.415,1.414-1.414-1.414Z"/></g><text x="0" y="79" fill="#000000" font-size="5px" font-weight="bold" font-family="'Helvetica Neue', Helvetica, Arial-Unicode, Arial, Sans-serif">Created by Komkrit Noenpoempisut</text><text x="0" y="84" fill="#000000" font-size="5px" font-weight="bold" font-family="'Helvetica Neue', Helvetica, Arial-Unicode, Arial, Sans-serif">from the Noun Project</text></svg>