<svg xmlns="http://www.w3.org/2000/svg" xmlns:xlink="http://www.w3.org/1999/xlink" version="1.0" x="0px" y="0px" viewBox="0 0 100 125" style="enable-background:new 0 0 100 100;" xml:space="preserve"><g><path d="M95.2,79L64.4,42.8c6.6-6.6,6.6-6.6,17.3-17.3c12.2-12.2,8.9-17,8.9-17l0,0c0,0-4.7-3.3-17,8.9C63,28,63,28,56.4,34.7   L20.2,3.9c0,0-0.9-0.6-1.4,0c-0.6,0.6-2.9,2.9-2.9,2.9l0.4,0.4l24.4,34.6c0,0-1.7,1.5-2.8,2.7c-1.1,1.1-4,3.9-5.2,5.9   c-1.3,1.9-1.1,2.2-1.1,2.2l2.2,2.2l-0.1,0.9l-3.1,3.7l0.6,4c0,0-1.5,2.4-2.7,4.4c-1.2,2-1.7,3.6-1.7,3.6L5.7,62.7   c0,0-0.6,0.2-1.3,0.9C3.7,64.3,2.3,66,2.3,66l17.9,12.8l-0.9,1.3l0,0l1.4-0.9l12.4,17.3c0,0,1.6-1.3,2.3-2c0.7-0.7,0.9-1.3,0.9-1.3   l-8.4-20.9c0,0,1.6-0.5,3.6-1.7c2-1.2,4.4-2.6,4.4-2.6l4,0.6l3.5-3l0.9-0.1l2.2,2.2c0,0,0.4,0,2.3-1.3c1.9-1.3,4.7-4.1,5.9-5.2   c1.1-1.1,2.7-2.8,2.7-2.8l34.5,24.5l0.4,0.4c0,0,2.4-2.4,2.9-2.9C95.8,79.8,95.2,79,95.2,79z M54.4,38.8c-0.2,0.2-1.4-0.3-1-0.7   c0.4-0.4,0.6-0.6,1-1c0.3-0.3,0.9,0.8,0.7,1C54.9,38.3,54.5,38.7,54.4,38.8z M57.2,36.1c-0.2,0.2-1.4-0.3-1-0.7   c0.4-0.4,0.6-0.6,1-1c0.3-0.3,0.9,0.8,0.7,1C57.7,35.6,57.3,36,57.2,36.1z M59.6,33.7c-0.2,0.2-1.4-0.3-1-0.7c0.4-0.4,0.6-0.6,1-1   c0.3-0.3,0.9,0.8,0.7,1C60.1,33.2,59.7,33.5,59.6,33.7z M62.3,30.9c-0.2,0.2-1.4-0.3-1-0.7c0.4-0.4,0.6-0.6,1-1   c0.3-0.3,0.9,0.8,0.7,1C62.8,30.4,62.4,30.8,62.3,30.9z M64.7,28.5c-0.2,0.2-1.4-0.3-1-0.7c0.4-0.4,0.6-0.6,1-1   c0.3-0.3,0.9,0.8,0.7,1C65.3,28,64.9,28.4,64.7,28.5z M67.8,25.5c-0.2,0.2-1.4-0.3-1-0.7c0.4-0.4,0.6-0.6,1-1   c0.3-0.3,0.9,0.8,0.7,1C68.3,25,67.9,25.3,67.8,25.5z M72,21.6c-0.4-0.4-0.8-0.8-0.8-0.8s-0.2-0.2,0.1-0.6c0.4-0.4,2.3-2.3,2.1-2   c0,0,0,0.7,0.1,1.2c0.1,0.5,0.3,1.2-0.2,1.6c-0.4,0.4-0.5,0.5-0.5,0.5S72.4,22,72,21.6z M78,20.6c-0.2,0.2-0.6,0.2-0.6,0.2   s-1.2-0.7-2.6-0.4c-0.5,0.1-0.7-0.4-0.7-0.4s-0.5-1.8-0.1-2.8c0.2-0.4,0.6-0.7,0.6-0.7s0.6-0.4,1.7-0.4l-0.3,0.3c0,0,0.8,0,1.7,0.4   c1.1,0.4,1.6,1.1,1.6,1.1l0.4-0.4c0.1,0.1,0.3,0.2,0.4,0.3c0.2,0.2,0.3,0.3-0.1,0.7C79.7,18.9,78.2,20.4,78,20.6z M77.7,26.3   c0,0,0.1-0.1,0.5-0.5c0.4-0.4,1-0.3,1.6-0.2c0.5,0.1,1.2,0.1,1.2,0.1c0.3-0.2-1.7,1.7-2,2.1c-0.4,0.4-0.6,0.2-0.6,0.2   s-0.5-0.5-0.8-0.8C77.2,26.7,77.7,26.3,77.7,26.3z M61,45.7c-0.4,0.4-1-0.8-0.7-1c0.1-0.1,0.5-0.5,0.7-0.7c0.2-0.2,1.3,0.4,1,0.7   C61.7,45.1,61.4,45.3,61,45.7z M63.8,43c-0.4,0.4-1-0.8-0.7-1c0.1-0.1,0.5-0.5,0.7-0.7c0.2-0.2,1.3,0.4,1,0.7   C64.4,42.4,64.2,42.6,63.8,43z M66.2,40.6c-0.4,0.4-1-0.8-0.7-1c0.1-0.1,0.5-0.5,0.7-0.7c0.2-0.2,1.3,0.4,1,0.7   C66.8,39.9,66.6,40.2,66.2,40.6z M68.9,37.8c-0.4,0.4-1-0.8-0.7-1c0.1-0.1,0.5-0.5,0.7-0.7c0.2-0.2,1.3,0.4,1,0.7   C69.6,37.2,69.3,37.5,68.9,37.8z M71.4,35.4c-0.4,0.4-1-0.8-0.7-1c0.1-0.1,0.5-0.5,0.7-0.7c0.2-0.2,1.3,0.4,1,0.7   C72,34.8,71.8,35,71.4,35.4z M74.4,32.4c-0.4,0.4-1-0.8-0.7-1c0.1-0.1,0.5-0.5,0.7-0.7c0.2-0.2,1.3,0.4,1,0.7   C75,31.7,74.8,32,74.4,32.4z M81.9,25.1c-1,0.4-2.8-0.1-2.8-0.1s-0.5-0.2-0.4-0.7c0.4-1.4-0.3-2.6-0.3-2.6s-0.1-0.3,0.2-0.6   c0.2-0.2,1.7-1.7,2.1-2.1c0.4-0.4,0.6-0.3,0.7-0.1c0.1,0.1,0.2,0.3,0.3,0.4l-0.4,0.4c0,0,0.7,0.6,1.1,1.6c0.4,0.9,0.4,1.7,0.4,1.7   l0.3-0.3c0,1-0.4,1.7-0.4,1.7S82.4,24.9,81.9,25.1z"/></g><text x="0" y="115" fill="#000000" font-size="5px" font-weight="bold" font-family="'Helvetica Neue', Helvetica, Arial-Unicode, Arial, Sans-serif">Created by Tim Pavell</text><text x="0" y="120" fill="#000000" font-size="5px" font-weight="bold" font-family="'Helvetica Neue', Helvetica, Arial-Unicode, Arial, Sans-serif">from the Noun Project</text></svg>