<svg xmlns="http://www.w3.org/2000/svg" xmlns:xlink="http://www.w3.org/1999/xlink" version="1.1" x="0px" y="0px" viewBox="0 0 128 160" enable-background="new 0 0 128 128" xml:space="preserve"><g><path d="M93.669,62.298H88.66c-1.433,0-2.598,1.166-2.598,2.598v5.01c0,1.432,1.165,2.598,2.598,2.598h5.009   c1.433,0,2.599-1.166,2.599-2.598v-5.01C96.268,63.463,95.102,62.298,93.669,62.298z M94.768,69.905   c0,0.605-0.493,1.098-1.099,1.098H88.66c-0.605,0-1.098-0.492-1.098-1.098v-5.01c0-0.605,0.492-1.098,1.098-1.098h5.009   c0.605,0,1.099,0.492,1.099,1.098V69.905z"/><path d="M79.34,66.65H49.776c-0.414,0-0.75,0.336-0.75,0.75s0.336,0.75,0.75,0.75H79.34c0.414,0,0.75-0.336,0.75-0.75   S79.754,66.65,79.34,66.65z"/><path d="M93.669,77.988H88.66c-1.433,0-2.598,1.166-2.598,2.598v5.01c0,1.432,1.165,2.598,2.598,2.598h5.009   c1.433,0,2.599-1.166,2.599-2.598v-5.01C96.268,79.154,95.102,77.988,93.669,77.988z M94.768,85.596   c0,0.605-0.493,1.098-1.099,1.098H88.66c-0.605,0-1.098-0.492-1.098-1.098v-5.01c0-0.605,0.492-1.098,1.098-1.098h5.009   c0.605,0,1.099,0.492,1.099,1.098V85.596z"/><path d="M93.669,93.679H88.66c-1.433,0-2.598,1.166-2.598,2.599v5.009c0,1.432,1.165,2.598,2.598,2.598h5.009   c1.433,0,2.599-1.166,2.599-2.598v-5.009C96.268,94.844,95.102,93.679,93.669,93.679z M94.768,101.286   c0,0.605-0.493,1.098-1.099,1.098H88.66c-0.605,0-1.098-0.492-1.098-1.098v-5.009c0-0.606,0.492-1.099,1.098-1.099h5.009   c0.605,0,1.099,0.493,1.099,1.099V101.286z"/><path d="M51.773,92.024l-0.7-3.154c-0.076-0.343-0.381-0.587-0.732-0.587h-2.969c-0.095-0.251-0.199-0.502-0.314-0.752l2.1-2.102   c0.249-0.249,0.291-0.636,0.103-0.933l-1.734-2.727c-0.059-0.093-0.138-0.171-0.23-0.23l-2.726-1.734   c-0.294-0.187-0.685-0.146-0.933,0.102l-2.103,2.101c-0.249-0.115-0.5-0.22-0.751-0.314v-2.968c0-0.352-0.244-0.656-0.587-0.732   l-3.154-0.701c-0.107-0.024-0.219-0.024-0.326,0l-3.154,0.701c-0.343,0.076-0.587,0.38-0.587,0.732l-0.001,2.968   c-0.25,0.094-0.501,0.199-0.75,0.314l-2.103-2.101c-0.248-0.249-0.638-0.289-0.933-0.103l-2.726,1.735   c-0.093,0.059-0.172,0.138-0.23,0.23l-1.734,2.726c-0.188,0.297-0.146,0.685,0.103,0.933l2.101,2.102   c-0.115,0.25-0.22,0.501-0.314,0.752h-2.97c-0.352,0-0.656,0.244-0.732,0.587l-0.7,3.154c-0.023,0.107-0.023,0.218,0,0.325   l0.7,3.154c0.076,0.343,0.381,0.587,0.732,0.587h2.97c0.095,0.25,0.199,0.501,0.314,0.751l-2.103,2.103   c-0.249,0.249-0.291,0.636-0.103,0.933l1.735,2.727c0.059,0.092,0.138,0.171,0.23,0.23l2.727,1.735   c0.296,0.189,0.685,0.147,0.933-0.103l2.103-2.103c0.249,0.115,0.5,0.22,0.75,0.314v2.97c0,0.352,0.244,0.656,0.588,0.732   l3.155,0.7c0.053,0.012,0.107,0.018,0.162,0.018s0.109-0.006,0.162-0.018l3.154-0.701c0.344-0.076,0.588-0.38,0.588-0.732v-2.969   c0.251-0.094,0.502-0.199,0.751-0.314l2.103,2.102c0.249,0.25,0.64,0.291,0.933,0.103l2.726-1.735   c0.093-0.059,0.172-0.138,0.23-0.23l1.734-2.727c0.188-0.296,0.146-0.684-0.103-0.933l-2.101-2.101   c0.115-0.25,0.221-0.5,0.315-0.751h2.969c0.352,0,0.656-0.244,0.732-0.587l0.7-3.155C51.797,92.242,51.797,92.131,51.773,92.024z    M49.739,94.592h-2.901c-0.327,0-0.616,0.212-0.715,0.524c-0.161,0.508-0.376,1.024-0.641,1.532   c-0.151,0.29-0.097,0.645,0.135,0.876l2.054,2.055l-1.321,2.079l-2.078,1.322l-2.056-2.056c-0.233-0.231-0.588-0.286-0.877-0.135   c-0.505,0.263-1.02,0.479-1.532,0.641c-0.312,0.099-0.523,0.388-0.523,0.715v2.901l-2.404,0.534l-2.405-0.534v-2.901   c0-0.327-0.211-0.616-0.522-0.715c-0.509-0.162-1.024-0.377-1.533-0.642c-0.29-0.15-0.644-0.095-0.876,0.136l-2.056,2.056   l-2.079-1.323l-1.322-2.078l2.056-2.056c0.231-0.231,0.286-0.585,0.136-0.875c-0.265-0.51-0.48-1.026-0.642-1.534   c-0.099-0.312-0.388-0.523-0.715-0.523h-2.901l-0.533-2.404l0.533-2.404h2.901c0.327,0,0.616-0.211,0.715-0.523   c0.162-0.51,0.378-1.027,0.642-1.535c0.15-0.29,0.096-0.645-0.136-0.875l-2.054-2.055l1.321-2.078l2.078-1.323l2.056,2.055   c0.232,0.232,0.586,0.285,0.877,0.135c0.508-0.265,1.022-0.48,1.531-0.641c0.312-0.098,0.523-0.388,0.523-0.715l0.001-2.9   l2.404-0.535l2.404,0.535v2.899c0,0.327,0.211,0.616,0.522,0.715c0.513,0.163,1.028,0.378,1.534,0.641   c0.29,0.15,0.644,0.096,0.876-0.135l2.056-2.055l2.078,1.322l1.322,2.078l-2.054,2.055c-0.231,0.231-0.286,0.585-0.136,0.875   c0.264,0.508,0.479,1.025,0.642,1.535c0.099,0.312,0.388,0.523,0.715,0.523h2.9l0.533,2.404L49.739,94.592z"/><path d="M36.88,87.666c-2.492,0-4.521,2.028-4.521,4.521s2.028,4.521,4.521,4.521s4.521-2.028,4.521-4.521   S39.372,87.666,36.88,87.666z M36.88,95.207c-1.665,0-3.021-1.355-3.021-3.021s1.355-3.021,3.021-3.021s3.021,1.355,3.021,3.021   S38.545,95.207,36.88,95.207z"/><path d="M96.919,31.197h-1.491c-0.199,0-0.39,0.079-0.53,0.22l-6.655,6.656H57.339c-2.397,0-4.63,0.886-6.285,2.492   c-0.003,0.002-0.005,0.006-0.008,0.008c-0.001,0.001-0.003,0.003-0.004,0.004c-0.293,0.283-0.579,0.591-0.855,0.922   c-1.035,0.116-1.928,0.784-2.334,1.75c-0.412,0.979-0.267,2.057,0.394,2.886l0.117,0.143c0.894,1.074,2.257,1.69,3.74,1.69h9.803   c0.13,0.415,0.35,0.798,0.666,1.109c0.519,0.508,1.197,0.789,1.91,0.789h4.054l7.707,4.276c0.111,0.062,0.237,0.094,0.364,0.094   h7.188c0.296,0,0.564-0.174,0.686-0.445c0.12-0.271,0.069-0.587-0.129-0.807l-4.916-5.449h10.63   c4.108-0.014,7.313-4.096,7.446-4.27c0.025-0.032,0.037-0.07,0.057-0.105c0.016-0.029,0.035-0.056,0.047-0.087   c0.033-0.086,0.054-0.176,0.054-0.267l0,0v-10.86C97.669,31.533,97.333,31.197,96.919,31.197z M95.738,32.697h0.431v8.216   c-1.284-1.193-3.383-2.703-5.824-2.822L95.738,32.697z M76.802,52.737l-7.707-4.276c-0.111-0.062-0.237-0.094-0.364-0.094h-4.248   c-0.318,0-0.623-0.128-0.859-0.36c-0.218-0.213-0.342-0.5-0.35-0.842c0-0.667,0.542-1.209,1.209-1.209h11.507l6.119,6.781H76.802z    M90.063,46.036h-11.98l-1.202-1.333c-0.142-0.158-0.345-0.248-0.557-0.248H64.482c-1.236,0-2.271,0.838-2.594,2.014h-9.785   c-1.036,0-1.979-0.419-2.591-1.154l-0.096-0.117c-0.31-0.39-0.378-0.901-0.183-1.367c0.2-0.476,0.623-0.791,1.126-0.842   l0.254-0.021c0.212-0.013,0.409-0.116,0.541-0.283c0.239-0.303,0.495-0.57,0.75-0.831h3.472c0.414,0,0.75-0.336,0.75-0.75   s-0.336-0.75-0.75-0.75h-1.443c1.033-0.509,2.191-0.782,3.405-0.782H90.06c2.64,0.009,4.97,2.246,5.871,3.234   C95.029,43.794,92.699,46.027,90.063,46.036z"/><path d="M61.877,40.355h-1.125c-0.414,0-0.75,0.336-0.75,0.75s0.336,0.75,0.75,0.75h1.125c0.414,0,0.75-0.336,0.75-0.75   S62.291,40.355,61.877,40.355z"/><path d="M66.814,40.355h-1.125c-0.414,0-0.75,0.336-0.75,0.75s0.336,0.75,0.75,0.75h1.125c0.414,0,0.75-0.336,0.75-0.75   S67.229,40.355,66.814,40.355z"/><path d="M72.646,40.355h-1.125c-0.414,0-0.75,0.336-0.75,0.75s0.336,0.75,0.75,0.75h1.125c0.414,0,0.75-0.336,0.75-0.75   S73.061,40.355,72.646,40.355z"/><path d="M78.127,40.355h-1.125c-0.414,0-0.75,0.336-0.75,0.75s0.336,0.75,0.75,0.75h1.125c0.414,0,0.75-0.336,0.75-0.75   S78.541,40.355,78.127,40.355z"/><path d="M83.127,40.355h-1.125c-0.414,0-0.75,0.336-0.75,0.75s0.336,0.75,0.75,0.75h1.125c0.414,0,0.75-0.336,0.75-0.75   S83.541,40.355,83.127,40.355z"/><path d="M104.926,17.606H89.291c-0.221-3.942-3.497-7.081-7.493-7.081H63.59c-3.996,0-7.272,3.139-7.493,7.081H40.38   c-3.812,0-6.913,3.095-6.913,6.899v46.976H22.016c-3.221,0-5.841,2.621-5.841,5.842v29.727c0,3.221,2.62,5.841,5.841,5.841h11.879   c0.977,2.72,3.551,4.584,6.485,4.584h64.546c3.805,0,6.899-3.095,6.899-6.899V24.506C111.825,20.702,108.73,17.606,104.926,17.606z    M17.675,107.05V77.323c0-2.394,1.947-4.342,4.341-4.342h29.728c2.395,0,4.342,1.948,4.342,4.342v29.727   c0,2.394-1.947,4.341-4.342,4.341H22.016C19.622,111.391,17.675,109.443,17.675,107.05z M57.585,107.05v-7.518H79.34   c0.414,0,0.75-0.336,0.75-0.75s-0.336-0.75-0.75-0.75H57.585V83.841H79.34c0.414,0,0.75-0.336,0.75-0.75s-0.336-0.75-0.75-0.75   H57.585v-5.018c0-3.221-2.621-5.842-5.842-5.842H41.4V25.535h62.498v84.014H57.016C57.377,108.79,57.585,107.945,57.585,107.05z    M110.325,110.575c0,2.977-2.422,5.399-5.399,5.399H40.38c-2.114,0-3.996-1.231-4.881-3.084h16.244c1.673,0,3.18-0.711,4.246-1.842   h48.659c0.414,0,0.75-0.336,0.75-0.75V24.785c0-0.414-0.336-0.75-0.75-0.75H40.65c-0.414,0-0.75,0.336-0.75,0.75v46.696h-4.934   V24.506c0-2.977,2.429-5.399,5.413-5.399l16.272,0.007l0.162,0.014c0.213,0.01,0.419-0.068,0.568-0.219   c0.15-0.15,0.229-0.356,0.219-0.568l-0.008-0.129c-0.004-0.061-0.009-0.121-0.009-0.182c0-3.311,2.693-6.005,6.005-6.005h18.208   c3.312,0,6.005,2.694,6.005,6.005c0,0.06-0.005,0.118-0.009,0.176l-0.008,0.127c-0.011,0.209,0.066,0.413,0.213,0.563   c0.146,0.149,0.34,0.238,0.558,0.225c0.02,0,0.162-0.013,0.182-0.015h16.188c2.978,0,5.399,2.422,5.399,5.399V110.575z"/><path d="M75.377,14.775h-5.664c-1.31,0-2.375,1.065-2.375,2.375s1.065,2.375,2.375,2.375h5.664c1.31,0,2.375-1.065,2.375-2.375   S76.687,14.775,75.377,14.775z M75.377,18.025h-5.664c-0.482,0-0.875-0.393-0.875-0.875s0.393-0.875,0.875-0.875h5.664   c0.482,0,0.875,0.393,0.875,0.875S75.859,18.025,75.377,18.025z"/></g><text x="0" y="143" fill="#000000" font-size="5px" font-weight="bold" font-family="'Helvetica Neue', Helvetica, Arial-Unicode, Arial, Sans-serif">Created by verry poernomo</text><text x="0" y="148" fill="#000000" font-size="5px" font-weight="bold" font-family="'Helvetica Neue', Helvetica, Arial-Unicode, Arial, Sans-serif">from the Noun Project</text></svg>