<?xml version="1.0" encoding="utf-8"?>
<svg viewBox="0 0 100 100" xmlns="http://www.w3.org/2000/svg">
  <path d="M 54.111 95.892 C 54.102 97.455 53.214 98.877 51.813 99.565 C 50.412 100.253 48.743 100.088 47.503 99.141 C 46.264 98.19 45.669 96.622 45.966 95.09 C 46.268 93.557 47.41 92.33 48.913 91.913 L 48.913 76.087 L 51.087 76.087 L 51.087 91.913 C 52.875 92.41 54.11 94.036 54.11 95.892 L 54.111 95.892 Z M 69.826 26.008 C 72.123 26.013 73.987 27.877 73.992 30.174 L 73.992 69.825 C 73.987 72.123 72.123 73.986 69.826 73.991 L 30.175 73.991 C 27.877 73.986 26.013 72.122 26.009 69.825 L 26.009 30.174 C 26.013 27.877 27.877 26.013 30.175 26.008 L 69.826 26.008 Z M 69.283 31.757 C 69.283 31.469 69.167 31.193 68.964 30.989 C 68.76 30.786 68.484 30.67 68.196 30.67 L 31.759 30.67 C 31.16 30.67 30.672 31.16 30.672 31.757 L 30.672 68.24 C 30.672 68.529 30.786 68.805 30.989 69.009 C 31.193 69.213 31.469 69.327 31.759 69.327 L 68.241 69.327 C 68.529 69.327 68.805 69.213 69.01 69.009 C 69.213 68.805 69.328 68.529 69.328 68.24 L 69.283 31.757 Z M 32.803 32.844 L 67.198 32.844 L 67.198 67.197 L 32.803 67.197 L 32.803 32.844 Z M 36.552 51.442 C 36.557 51.808 36.815 52.122 37.172 52.195 L 38.782 52.478 C 39.066 52.529 39.295 52.742 39.368 53.022 C 39.609 53.863 39.945 54.674 40.378 55.434 C 40.54 55.681 40.54 55.995 40.378 56.237 L 39.453 57.574 L 39.457 57.574 C 39.248 57.88 39.282 58.292 39.542 58.555 L 41.52 60.534 C 41.783 60.793 42.195 60.827 42.501 60.619 L 43.839 59.693 L 43.834 59.697 C 44.081 59.536 44.395 59.536 44.641 59.697 C 45.405 60.131 46.22 60.47 47.066 60.708 C 47.345 60.784 47.558 61.018 47.61 61.303 L 47.826 62.827 C 47.898 63.183 48.212 63.442 48.577 63.446 L 51.379 63.446 C 51.762 63.464 52.098 63.201 52.174 62.827 L 52.459 61.218 C 52.506 60.933 52.717 60.704 53.002 60.631 C 53.851 60.394 54.667 60.054 55.435 59.621 C 55.681 59.459 55.996 59.459 56.237 59.621 L 57.575 60.546 L 57.575 60.542 C 57.881 60.751 58.293 60.717 58.556 60.457 L 60.534 58.479 C 60.794 58.216 60.828 57.804 60.619 57.498 L 59.694 56.16 L 59.698 56.164 C 59.536 55.919 59.536 55.604 59.698 55.358 C 60.131 54.594 60.471 53.778 60.708 52.933 C 60.785 52.653 61.019 52.44 61.303 52.389 L 62.828 52.173 C 63.184 52.101 63.443 51.787 63.448 51.422 L 63.448 48.598 C 63.452 48.224 63.193 47.898 62.828 47.825 L 61.218 47.54 C 60.933 47.493 60.704 47.281 60.632 46.996 C 60.394 46.147 60.055 45.332 59.621 44.564 C 59.46 44.318 59.46 44.003 59.621 43.761 L 60.547 42.423 L 60.543 42.423 C 60.751 42.118 60.717 41.706 60.458 41.443 L 58.48 39.464 C 58.216 39.205 57.805 39.171 57.498 39.38 L 56.161 40.305 L 56.166 40.3 C 55.919 40.462 55.605 40.462 55.359 40.3 C 54.594 39.868 53.778 39.528 52.934 39.291 C 52.653 39.218 52.441 38.988 52.39 38.704 L 52.174 37.171 C 52.101 36.814 51.787 36.556 51.422 36.551 L 48.599 36.551 C 48.233 36.556 47.919 36.814 47.847 37.171 L 47.563 38.781 L 47.566 38.781 C 47.516 39.064 47.303 39.294 47.023 39.367 C 46.174 39.605 45.363 39.944 44.598 40.376 C 44.352 40.538 44.038 40.538 43.792 40.376 L 42.454 39.451 L 42.454 39.456 C 42.153 39.247 41.741 39.282 41.478 39.541 L 39.499 41.519 C 39.239 41.782 39.201 42.194 39.413 42.501 L 40.34 43.838 L 40.335 43.833 C 40.496 44.08 40.496 44.394 40.335 44.64 C 39.903 45.405 39.562 46.219 39.324 47.065 C 39.248 47.345 39.014 47.557 38.726 47.608 L 37.172 47.825 C 36.815 47.898 36.556 48.212 36.552 48.577 L 36.552 51.442 Z M 50 56.139 C 52.484 56.139 54.722 54.645 55.673 52.351 C 56.624 50.054 56.097 47.413 54.344 45.655 C 52.586 43.902 49.944 43.374 47.648 44.326 C 45.354 45.277 43.859 47.515 43.859 49.999 C 43.859 53.391 46.607 56.139 50 56.139 Z M 8.085 51.086 L 23.911 51.086 L 23.911 48.912 L 8.085 48.912 C 7.558 46.912 5.631 45.617 3.584 45.88 C 1.533 46.143 0 47.889 0 49.956 C 0 52.021 1.533 53.765 3.584 54.028 C 5.631 54.296 7.558 52.997 8.085 51.001 L 8.085 51.086 Z M 48.913 8.084 L 48.913 23.91 L 51.087 23.91 L 51.087 8.084 C 53.087 7.558 54.382 5.63 54.119 3.584 C 53.856 1.533 52.11 0 50.042 0 C 47.978 0 46.233 1.533 45.97 3.584 C 45.703 5.63 47.002 7.558 48.998 8.084 L 48.913 8.084 Z M 95.893 45.888 C 94.037 45.888 92.411 47.124 91.915 48.911 L 76.089 48.911 L 76.089 51.085 L 91.915 51.085 C 92.313 52.601 93.536 53.756 95.073 54.071 C 96.606 54.381 98.186 53.795 99.141 52.554 C 100.101 51.314 100.27 49.637 99.578 48.231 C 98.89 46.826 97.459 45.934 95.893 45.934 L 95.893 45.888 Z M 36.434 81.955 L 25.258 81.955 C 24.735 79.959 22.808 78.66 20.761 78.923 C 18.71 79.191 17.177 80.937 17.177 83 C 17.177 85.067 18.71 86.813 20.761 87.076 C 22.808 87.339 24.735 86.045 25.258 84.044 L 37.478 84.044 C 37.767 84.044 38.043 83.93 38.247 83.726 C 38.45 83.523 38.565 83.247 38.565 82.957 L 38.565 76.087 L 36.434 76.087 L 36.434 81.955 Z M 91.218 87.216 L 91.222 87.216 C 89.349 87.216 87.71 88.482 87.242 90.295 L 63.566 90.295 L 63.566 76.087 L 61.49 76.087 L 61.49 91.306 C 61.49 91.595 61.605 91.871 61.808 92.074 C 62.013 92.279 62.289 92.393 62.577 92.393 L 87.242 92.393 C 87.638 93.909 88.861 95.064 90.398 95.378 C 91.931 95.688 93.51 95.102 94.466 93.862 C 95.426 92.622 95.595 90.945 94.903 89.539 C 94.215 88.134 92.784 87.242 91.221 87.242 L 91.218 87.216 Z M 83.001 61.489 L 76.089 61.489 L 76.089 63.565 L 81.956 63.565 L 81.956 74.741 C 79.961 75.263 78.662 77.191 78.925 79.238 C 79.192 81.289 80.938 82.822 83.001 82.822 C 85.068 82.822 86.814 81.289 87.077 79.238 C 87.34 77.191 86.046 75.263 84.046 74.741 L 84.046 62.52 C 84.016 61.96 83.566 61.51 83.001 61.489 Z M 90.296 12.76 L 90.296 36.432 L 76.089 36.432 L 76.089 38.508 L 91.307 38.508 C 91.596 38.508 91.872 38.394 92.075 38.189 C 92.28 37.986 92.394 37.71 92.394 37.421 L 92.394 12.755 C 94.398 12.233 95.706 10.305 95.443 8.246 C 95.18 6.191 93.43 4.649 91.358 4.649 C 89.282 4.649 87.532 6.191 87.269 8.246 C 87.006 10.305 88.313 12.233 90.318 12.755 L 90.296 12.76 Z M 63.566 18.041 L 74.742 18.041 C 75.263 20.037 77.192 21.337 79.239 21.074 C 81.289 20.806 82.823 19.061 82.823 16.998 C 82.823 14.929 81.289 13.185 79.239 12.921 C 77.192 12.657 75.265 13.953 74.742 15.953 L 62.521 15.953 C 61.922 15.953 61.434 16.441 61.434 17.04 L 61.434 23.91 L 63.511 23.91 L 63.566 18.041 Z M 8.782 12.781 L 8.778 12.781 C 10.651 12.781 12.29 11.516 12.756 9.703 L 36.433 9.703 L 36.433 23.91 L 38.51 23.91 L 38.51 8.692 C 38.51 8.403 38.395 8.127 38.192 7.923 C 37.987 7.719 37.711 7.605 37.423 7.605 L 12.757 7.605 C 12.362 6.088 11.139 4.934 9.602 4.62 C 8.069 4.309 6.49 4.895 5.534 6.135 C 4.574 7.375 4.405 9.053 5.097 10.458 C 5.784 11.864 7.216 12.755 8.778 12.755 L 8.782 12.781 Z M 16.999 38.513 L 23.911 38.509 L 23.911 36.433 L 18.044 36.433 L 18.044 25.257 C 20.039 24.734 21.338 22.807 21.075 20.76 C 20.808 18.709 19.062 17.176 16.999 17.176 C 14.93 17.176 13.186 18.709 12.923 20.76 C 12.66 22.807 13.954 24.734 15.954 25.257 L 15.954 37.477 C 15.984 38.037 16.434 38.487 16.999 38.509 L 16.999 38.513 Z M 9.704 87.242 L 9.704 63.566 L 23.911 63.566 L 23.911 61.489 L 8.693 61.489 C 8.094 61.489 7.606 61.978 7.606 62.576 L 7.606 87.241 C 5.601 87.764 4.294 89.692 4.557 91.751 C 4.82 93.806 6.57 95.347 8.642 95.347 C 10.718 95.347 12.467 93.806 12.731 91.751 C 12.994 89.692 11.687 87.764 9.682 87.241 L 9.704 87.242 Z" fill-rule="evenodd" style="fill: rgb(238, 238, 238); transform-origin: 50px 49.993px;"/>
</svg>