<?xml version="1.0" encoding="utf-8"?>
<svg viewBox="0 0 100 94" xmlns="http://www.w3.org/2000/svg">
  <path d="M 6.566 56.763 C 2.883 56.763 0 60.625 0 65.558 C 0 70.492 2.883 74.354 6.566 74.354 C 10.251 74.354 13.134 70.492 13.134 65.558 C 13.134 60.625 10.251 56.763 6.566 56.763 Z"/>
  <path d="M 93.434 56.763 C 89.75 56.763 86.867 60.625 86.867 65.558 C 86.867 70.492 89.75 74.354 93.434 74.354 C 97.117 74.354 100 70.492 100 65.558 C 100 60.625 97.117 56.763 93.434 56.763 Z"/>
  <path d="M 88.35 17.897 L 88.35 36.813 C 86.295 37.513 84.804 39.438 84.804 41.726 L 84.804 49.846 L 90.017 49.846 C 92.892 49.846 95.229 47.508 95.229 44.634 L 95.229 41.722 C 95.229 39.434 93.738 37.508 91.683 36.809 L 91.683 16.746 L 95.13 15.558 L 50 0 L 4.87 15.558 L 50 31.117 L 88.35 17.897 Z"/>
  <path d="M 82.179 23.55 L 50 34.641 L 17.821 23.55 L 17.821 33.941 L 50 44.492 L 82.179 33.941 L 82.179 23.55 Z"/>
  <path d="M 41.975 93.717 L 50.001 87.409 L 58.026 93.717 L 58.026 77.689 L 41.975 77.689 L 41.975 93.717 Z"/>
  <path d="M 53.204 74.354 C 54.583 71.975 55.838 68.642 55.609 64.566 C 55.429 61.366 54.384 58.75 53.221 56.767 L 48.117 56.767 C 49.113 58.87 49.913 61.408 50.083 64.383 C 50.304 68.35 49.35 71.716 48.1 74.358 L 53.204 74.358 L 53.204 74.354 Z"/>
  <path d="M 16.367 67.226 C 16.063 70.038 15.005 72.517 13.438 74.355 L 44.35 74.355 C 45.729 71.975 46.983 68.642 46.754 64.567 C 46.575 61.367 45.53 58.751 44.371 56.767 L 13.438 56.763 C 15.008 58.601 16.063 61.079 16.367 63.892 L 26.746 63.892 L 26.746 67.226 L 16.367 67.226 Z M 30.205 63.892 L 35.755 63.892 L 35.755 67.226 L 30.205 67.226 L 30.205 63.892 Z"/>
  <path d="M 56.975 56.763 C 57.971 58.867 58.775 61.405 58.942 64.38 C 59.163 68.346 58.209 71.713 56.959 74.354 L 86.567 74.354 C 84.692 72.159 83.538 69.058 83.538 65.558 C 83.538 62.059 84.697 58.959 86.567 56.763 L 56.975 56.763 Z"/>
</svg>